<mxfile host="app.diagrams.net" modified="2024-05-27T04:24:53.609Z" agent="Mozilla/5.0 (Windows NT 10.0; Win64; x64) AppleWebKit/537.36 (KHTML, like Gecko) Chrome/125.0.0.0 Safari/537.36" etag="wBpCaGEHkZJ1Bx7Gf5Ic" version="24.4.8" type="device">
  <diagram name="Halaman-1" id="PW-rABOYuYUCQ4Aet7_U">
    <mxGraphModel dx="2704" dy="557" grid="1" gridSize="10" guides="1" tooltips="1" connect="1" arrows="1" fold="1" page="1" pageScale="1" pageWidth="827" pageHeight="1169" math="0" shadow="0">
      <root>
        <mxCell id="0" />
        <mxCell id="1" parent="0" />
        <mxCell id="pyn8TXAOzBxaNTXYstjd-1" value="`address`" style="shape=table;startSize=30;container=1;collapsible=1;childLayout=tableLayout;fixedRows=1;rowLines=0;fontStyle=1;align=center;resizeLast=1;" vertex="1" parent="1">
          <mxGeometry x="-1520" y="140" width="320" height="270" as="geometry" />
        </mxCell>
        <mxCell id="pyn8TXAOzBxaNTXYstjd-2" value="" style="shape=tableRow;horizontal=0;startSize=0;swimlaneHead=0;swimlaneBody=0;fillColor=none;collapsible=0;dropTarget=0;points=[[0,0.5],[1,0.5]];portConstraint=eastwest;strokeColor=inherit;top=0;left=0;right=0;bottom=0;" vertex="1" parent="pyn8TXAOzBxaNTXYstjd-1">
          <mxGeometry y="30" width="320" height="30" as="geometry" />
        </mxCell>
        <mxCell id="pyn8TXAOzBxaNTXYstjd-3" value="PK" style="shape=partialRectangle;overflow=hidden;connectable=0;fillColor=none;strokeColor=inherit;top=0;left=0;bottom=0;right=0;" vertex="1" parent="pyn8TXAOzBxaNTXYstjd-2">
          <mxGeometry width="30" height="30" as="geometry">
            <mxRectangle width="30" height="30" as="alternateBounds" />
          </mxGeometry>
        </mxCell>
        <mxCell id="pyn8TXAOzBxaNTXYstjd-4" value="`id_address` int NOT NULL" style="shape=partialRectangle;overflow=hidden;connectable=0;fillColor=none;align=left;strokeColor=inherit;top=0;left=0;bottom=0;right=0;spacingLeft=6;" vertex="1" parent="pyn8TXAOzBxaNTXYstjd-2">
          <mxGeometry x="30" width="290" height="30" as="geometry">
            <mxRectangle width="290" height="30" as="alternateBounds" />
          </mxGeometry>
        </mxCell>
        <mxCell id="pyn8TXAOzBxaNTXYstjd-5" value="" style="shape=tableRow;horizontal=0;startSize=0;swimlaneHead=0;swimlaneBody=0;fillColor=none;collapsible=0;dropTarget=0;points=[[0,0.5],[1,0.5]];portConstraint=eastwest;strokeColor=inherit;top=0;left=0;right=0;bottom=0;" vertex="1" parent="pyn8TXAOzBxaNTXYstjd-1">
          <mxGeometry y="60" width="320" height="30" as="geometry" />
        </mxCell>
        <mxCell id="pyn8TXAOzBxaNTXYstjd-6" value="FK" style="shape=partialRectangle;overflow=hidden;connectable=0;fillColor=none;strokeColor=inherit;top=0;left=0;bottom=0;right=0;" vertex="1" parent="pyn8TXAOzBxaNTXYstjd-5">
          <mxGeometry width="30" height="30" as="geometry">
            <mxRectangle width="30" height="30" as="alternateBounds" />
          </mxGeometry>
        </mxCell>
        <mxCell id="pyn8TXAOzBxaNTXYstjd-7" value="`id_user` int NOT NULL" style="shape=partialRectangle;overflow=hidden;connectable=0;fillColor=none;align=left;strokeColor=inherit;top=0;left=0;bottom=0;right=0;spacingLeft=6;" vertex="1" parent="pyn8TXAOzBxaNTXYstjd-5">
          <mxGeometry x="30" width="290" height="30" as="geometry">
            <mxRectangle width="290" height="30" as="alternateBounds" />
          </mxGeometry>
        </mxCell>
        <mxCell id="pyn8TXAOzBxaNTXYstjd-8" value="" style="shape=tableRow;horizontal=0;startSize=0;swimlaneHead=0;swimlaneBody=0;fillColor=none;collapsible=0;dropTarget=0;points=[[0,0.5],[1,0.5]];portConstraint=eastwest;strokeColor=inherit;top=0;left=0;right=0;bottom=0;" vertex="1" parent="pyn8TXAOzBxaNTXYstjd-1">
          <mxGeometry y="90" width="320" height="30" as="geometry" />
        </mxCell>
        <mxCell id="pyn8TXAOzBxaNTXYstjd-9" value="" style="shape=partialRectangle;overflow=hidden;connectable=0;fillColor=none;strokeColor=inherit;top=0;left=0;bottom=0;right=0;" vertex="1" parent="pyn8TXAOzBxaNTXYstjd-8">
          <mxGeometry width="30" height="30" as="geometry">
            <mxRectangle width="30" height="30" as="alternateBounds" />
          </mxGeometry>
        </mxCell>
        <mxCell id="pyn8TXAOzBxaNTXYstjd-10" value="`is_primary` tinyint(1) NOT NULL DEFAULT &#39;0&#39;" style="shape=partialRectangle;overflow=hidden;connectable=0;fillColor=none;align=left;strokeColor=inherit;top=0;left=0;bottom=0;right=0;spacingLeft=6;" vertex="1" parent="pyn8TXAOzBxaNTXYstjd-8">
          <mxGeometry x="30" width="290" height="30" as="geometry">
            <mxRectangle width="290" height="30" as="alternateBounds" />
          </mxGeometry>
        </mxCell>
        <mxCell id="pyn8TXAOzBxaNTXYstjd-11" value="" style="shape=tableRow;horizontal=0;startSize=0;swimlaneHead=0;swimlaneBody=0;fillColor=none;collapsible=0;dropTarget=0;points=[[0,0.5],[1,0.5]];portConstraint=eastwest;strokeColor=inherit;top=0;left=0;right=0;bottom=0;" vertex="1" parent="pyn8TXAOzBxaNTXYstjd-1">
          <mxGeometry y="120" width="320" height="30" as="geometry" />
        </mxCell>
        <mxCell id="pyn8TXAOzBxaNTXYstjd-12" value="" style="shape=partialRectangle;overflow=hidden;connectable=0;fillColor=none;strokeColor=inherit;top=0;left=0;bottom=0;right=0;" vertex="1" parent="pyn8TXAOzBxaNTXYstjd-11">
          <mxGeometry width="30" height="30" as="geometry">
            <mxRectangle width="30" height="30" as="alternateBounds" />
          </mxGeometry>
        </mxCell>
        <mxCell id="pyn8TXAOzBxaNTXYstjd-13" value="`city` varchar(191) COLLATE utf8mb4_unicode_ci NOT NULL" style="shape=partialRectangle;overflow=hidden;connectable=0;fillColor=none;align=left;strokeColor=inherit;top=0;left=0;bottom=0;right=0;spacingLeft=6;" vertex="1" parent="pyn8TXAOzBxaNTXYstjd-11">
          <mxGeometry x="30" width="290" height="30" as="geometry">
            <mxRectangle width="290" height="30" as="alternateBounds" />
          </mxGeometry>
        </mxCell>
        <mxCell id="pyn8TXAOzBxaNTXYstjd-14" value="" style="shape=tableRow;horizontal=0;startSize=0;swimlaneHead=0;swimlaneBody=0;fillColor=none;collapsible=0;dropTarget=0;points=[[0,0.5],[1,0.5]];portConstraint=eastwest;strokeColor=inherit;top=0;left=0;right=0;bottom=0;" vertex="1" parent="pyn8TXAOzBxaNTXYstjd-1">
          <mxGeometry y="150" width="320" height="30" as="geometry" />
        </mxCell>
        <mxCell id="pyn8TXAOzBxaNTXYstjd-15" value="" style="shape=partialRectangle;overflow=hidden;connectable=0;fillColor=none;strokeColor=inherit;top=0;left=0;bottom=0;right=0;" vertex="1" parent="pyn8TXAOzBxaNTXYstjd-14">
          <mxGeometry width="30" height="30" as="geometry">
            <mxRectangle width="30" height="30" as="alternateBounds" />
          </mxGeometry>
        </mxCell>
        <mxCell id="pyn8TXAOzBxaNTXYstjd-16" value="`province` varchar(191) COLLATE utf8mb4_unicode_ci NOT NULL" style="shape=partialRectangle;overflow=hidden;connectable=0;fillColor=none;align=left;strokeColor=inherit;top=0;left=0;bottom=0;right=0;spacingLeft=6;" vertex="1" parent="pyn8TXAOzBxaNTXYstjd-14">
          <mxGeometry x="30" width="290" height="30" as="geometry">
            <mxRectangle width="290" height="30" as="alternateBounds" />
          </mxGeometry>
        </mxCell>
        <mxCell id="pyn8TXAOzBxaNTXYstjd-17" value="" style="shape=tableRow;horizontal=0;startSize=0;swimlaneHead=0;swimlaneBody=0;fillColor=none;collapsible=0;dropTarget=0;points=[[0,0.5],[1,0.5]];portConstraint=eastwest;strokeColor=inherit;top=0;left=0;right=0;bottom=0;" vertex="1" parent="pyn8TXAOzBxaNTXYstjd-1">
          <mxGeometry y="180" width="320" height="30" as="geometry" />
        </mxCell>
        <mxCell id="pyn8TXAOzBxaNTXYstjd-18" value="" style="shape=partialRectangle;overflow=hidden;connectable=0;fillColor=none;strokeColor=inherit;top=0;left=0;bottom=0;right=0;" vertex="1" parent="pyn8TXAOzBxaNTXYstjd-17">
          <mxGeometry width="30" height="30" as="geometry">
            <mxRectangle width="30" height="30" as="alternateBounds" />
          </mxGeometry>
        </mxCell>
        <mxCell id="pyn8TXAOzBxaNTXYstjd-19" value="`postal_code` varchar(191) COLLATE utf8mb4_unicode_ci NOT NULL" style="shape=partialRectangle;overflow=hidden;connectable=0;fillColor=none;align=left;strokeColor=inherit;top=0;left=0;bottom=0;right=0;spacingLeft=6;" vertex="1" parent="pyn8TXAOzBxaNTXYstjd-17">
          <mxGeometry x="30" width="290" height="30" as="geometry">
            <mxRectangle width="290" height="30" as="alternateBounds" />
          </mxGeometry>
        </mxCell>
        <mxCell id="pyn8TXAOzBxaNTXYstjd-20" value="" style="shape=tableRow;horizontal=0;startSize=0;swimlaneHead=0;swimlaneBody=0;fillColor=none;collapsible=0;dropTarget=0;points=[[0,0.5],[1,0.5]];portConstraint=eastwest;strokeColor=inherit;top=0;left=0;right=0;bottom=0;" vertex="1" parent="pyn8TXAOzBxaNTXYstjd-1">
          <mxGeometry y="210" width="320" height="30" as="geometry" />
        </mxCell>
        <mxCell id="pyn8TXAOzBxaNTXYstjd-21" value="" style="shape=partialRectangle;overflow=hidden;connectable=0;fillColor=none;strokeColor=inherit;top=0;left=0;bottom=0;right=0;" vertex="1" parent="pyn8TXAOzBxaNTXYstjd-20">
          <mxGeometry width="30" height="30" as="geometry">
            <mxRectangle width="30" height="30" as="alternateBounds" />
          </mxGeometry>
        </mxCell>
        <mxCell id="pyn8TXAOzBxaNTXYstjd-22" value="`detail` varchar(191) COLLATE utf8mb4_unicode_ci NOT NULL" style="shape=partialRectangle;overflow=hidden;connectable=0;fillColor=none;align=left;strokeColor=inherit;top=0;left=0;bottom=0;right=0;spacingLeft=6;" vertex="1" parent="pyn8TXAOzBxaNTXYstjd-20">
          <mxGeometry x="30" width="290" height="30" as="geometry">
            <mxRectangle width="290" height="30" as="alternateBounds" />
          </mxGeometry>
        </mxCell>
        <mxCell id="pyn8TXAOzBxaNTXYstjd-23" value="" style="shape=tableRow;horizontal=0;startSize=0;swimlaneHead=0;swimlaneBody=0;fillColor=none;collapsible=0;dropTarget=0;points=[[0,0.5],[1,0.5]];portConstraint=eastwest;strokeColor=inherit;top=0;left=0;right=0;bottom=0;" vertex="1" parent="pyn8TXAOzBxaNTXYstjd-1">
          <mxGeometry y="240" width="320" height="30" as="geometry" />
        </mxCell>
        <mxCell id="pyn8TXAOzBxaNTXYstjd-24" value="" style="shape=partialRectangle;overflow=hidden;connectable=0;fillColor=none;strokeColor=inherit;top=0;left=0;bottom=0;right=0;" vertex="1" parent="pyn8TXAOzBxaNTXYstjd-23">
          <mxGeometry width="30" height="30" as="geometry">
            <mxRectangle width="30" height="30" as="alternateBounds" />
          </mxGeometry>
        </mxCell>
        <mxCell id="pyn8TXAOzBxaNTXYstjd-25" value="`phone` varchar(191) COLLATE utf8mb4_unicode_ci NOT NULL" style="shape=partialRectangle;overflow=hidden;connectable=0;fillColor=none;align=left;strokeColor=inherit;top=0;left=0;bottom=0;right=0;spacingLeft=6;" vertex="1" parent="pyn8TXAOzBxaNTXYstjd-23">
          <mxGeometry x="30" width="290" height="30" as="geometry">
            <mxRectangle width="290" height="30" as="alternateBounds" />
          </mxGeometry>
        </mxCell>
        <mxCell id="pyn8TXAOzBxaNTXYstjd-26" value="`categories`" style="shape=table;startSize=30;container=1;collapsible=1;childLayout=tableLayout;fixedRows=1;rowLines=0;fontStyle=1;align=center;resizeLast=1;" vertex="1" parent="1">
          <mxGeometry x="-1520" y="440" width="320" height="90" as="geometry" />
        </mxCell>
        <mxCell id="pyn8TXAOzBxaNTXYstjd-27" value="" style="shape=tableRow;horizontal=0;startSize=0;swimlaneHead=0;swimlaneBody=0;fillColor=none;collapsible=0;dropTarget=0;points=[[0,0.5],[1,0.5]];portConstraint=eastwest;strokeColor=inherit;top=0;left=0;right=0;bottom=0;" vertex="1" parent="pyn8TXAOzBxaNTXYstjd-26">
          <mxGeometry y="30" width="320" height="30" as="geometry" />
        </mxCell>
        <mxCell id="pyn8TXAOzBxaNTXYstjd-28" value="" style="shape=partialRectangle;overflow=hidden;connectable=0;fillColor=none;strokeColor=inherit;top=0;left=0;bottom=0;right=0;" vertex="1" parent="pyn8TXAOzBxaNTXYstjd-27">
          <mxGeometry width="30" height="30" as="geometry">
            <mxRectangle width="30" height="30" as="alternateBounds" />
          </mxGeometry>
        </mxCell>
        <mxCell id="pyn8TXAOzBxaNTXYstjd-29" value="`id_category` int NOT NULL" style="shape=partialRectangle;overflow=hidden;connectable=0;fillColor=none;align=left;strokeColor=inherit;top=0;left=0;bottom=0;right=0;spacingLeft=6;" vertex="1" parent="pyn8TXAOzBxaNTXYstjd-27">
          <mxGeometry x="30" width="290" height="30" as="geometry">
            <mxRectangle width="290" height="30" as="alternateBounds" />
          </mxGeometry>
        </mxCell>
        <mxCell id="pyn8TXAOzBxaNTXYstjd-30" value="" style="shape=tableRow;horizontal=0;startSize=0;swimlaneHead=0;swimlaneBody=0;fillColor=none;collapsible=0;dropTarget=0;points=[[0,0.5],[1,0.5]];portConstraint=eastwest;strokeColor=inherit;top=0;left=0;right=0;bottom=0;" vertex="1" parent="pyn8TXAOzBxaNTXYstjd-26">
          <mxGeometry y="60" width="320" height="30" as="geometry" />
        </mxCell>
        <mxCell id="pyn8TXAOzBxaNTXYstjd-31" value="" style="shape=partialRectangle;overflow=hidden;connectable=0;fillColor=none;strokeColor=inherit;top=0;left=0;bottom=0;right=0;" vertex="1" parent="pyn8TXAOzBxaNTXYstjd-30">
          <mxGeometry width="30" height="30" as="geometry">
            <mxRectangle width="30" height="30" as="alternateBounds" />
          </mxGeometry>
        </mxCell>
        <mxCell id="pyn8TXAOzBxaNTXYstjd-32" value="`name` varchar(191) COLLATE utf8mb4_unicode_ci NOT NULL" style="shape=partialRectangle;overflow=hidden;connectable=0;fillColor=none;align=left;strokeColor=inherit;top=0;left=0;bottom=0;right=0;spacingLeft=6;" vertex="1" parent="pyn8TXAOzBxaNTXYstjd-30">
          <mxGeometry x="30" width="290" height="30" as="geometry">
            <mxRectangle width="290" height="30" as="alternateBounds" />
          </mxGeometry>
        </mxCell>
        <mxCell id="pyn8TXAOzBxaNTXYstjd-33" value="`discounts`" style="shape=table;startSize=30;container=1;collapsible=1;childLayout=tableLayout;fixedRows=1;rowLines=0;fontStyle=1;align=center;resizeLast=1;" vertex="1" parent="1">
          <mxGeometry x="-1520" y="560" width="320" height="210" as="geometry" />
        </mxCell>
        <mxCell id="pyn8TXAOzBxaNTXYstjd-34" value="" style="shape=tableRow;horizontal=0;startSize=0;swimlaneHead=0;swimlaneBody=0;fillColor=none;collapsible=0;dropTarget=0;points=[[0,0.5],[1,0.5]];portConstraint=eastwest;strokeColor=inherit;top=0;left=0;right=0;bottom=0;" vertex="1" parent="pyn8TXAOzBxaNTXYstjd-33">
          <mxGeometry y="30" width="320" height="30" as="geometry" />
        </mxCell>
        <mxCell id="pyn8TXAOzBxaNTXYstjd-35" value="" style="shape=partialRectangle;overflow=hidden;connectable=0;fillColor=none;strokeColor=inherit;top=0;left=0;bottom=0;right=0;" vertex="1" parent="pyn8TXAOzBxaNTXYstjd-34">
          <mxGeometry width="30" height="30" as="geometry">
            <mxRectangle width="30" height="30" as="alternateBounds" />
          </mxGeometry>
        </mxCell>
        <mxCell id="pyn8TXAOzBxaNTXYstjd-36" value="`id_discount` int NOT NULL" style="shape=partialRectangle;overflow=hidden;connectable=0;fillColor=none;align=left;strokeColor=inherit;top=0;left=0;bottom=0;right=0;spacingLeft=6;" vertex="1" parent="pyn8TXAOzBxaNTXYstjd-34">
          <mxGeometry x="30" width="290" height="30" as="geometry">
            <mxRectangle width="290" height="30" as="alternateBounds" />
          </mxGeometry>
        </mxCell>
        <mxCell id="pyn8TXAOzBxaNTXYstjd-37" value="" style="shape=tableRow;horizontal=0;startSize=0;swimlaneHead=0;swimlaneBody=0;fillColor=none;collapsible=0;dropTarget=0;points=[[0,0.5],[1,0.5]];portConstraint=eastwest;strokeColor=inherit;top=0;left=0;right=0;bottom=0;" vertex="1" parent="pyn8TXAOzBxaNTXYstjd-33">
          <mxGeometry y="60" width="320" height="30" as="geometry" />
        </mxCell>
        <mxCell id="pyn8TXAOzBxaNTXYstjd-38" value="" style="shape=partialRectangle;overflow=hidden;connectable=0;fillColor=none;strokeColor=inherit;top=0;left=0;bottom=0;right=0;" vertex="1" parent="pyn8TXAOzBxaNTXYstjd-37">
          <mxGeometry width="30" height="30" as="geometry">
            <mxRectangle width="30" height="30" as="alternateBounds" />
          </mxGeometry>
        </mxCell>
        <mxCell id="pyn8TXAOzBxaNTXYstjd-39" value="`id_product` int NOT NULL" style="shape=partialRectangle;overflow=hidden;connectable=0;fillColor=none;align=left;strokeColor=inherit;top=0;left=0;bottom=0;right=0;spacingLeft=6;" vertex="1" parent="pyn8TXAOzBxaNTXYstjd-37">
          <mxGeometry x="30" width="290" height="30" as="geometry">
            <mxRectangle width="290" height="30" as="alternateBounds" />
          </mxGeometry>
        </mxCell>
        <mxCell id="pyn8TXAOzBxaNTXYstjd-40" value="" style="shape=tableRow;horizontal=0;startSize=0;swimlaneHead=0;swimlaneBody=0;fillColor=none;collapsible=0;dropTarget=0;points=[[0,0.5],[1,0.5]];portConstraint=eastwest;strokeColor=inherit;top=0;left=0;right=0;bottom=0;" vertex="1" parent="pyn8TXAOzBxaNTXYstjd-33">
          <mxGeometry y="90" width="320" height="30" as="geometry" />
        </mxCell>
        <mxCell id="pyn8TXAOzBxaNTXYstjd-41" value="" style="shape=partialRectangle;overflow=hidden;connectable=0;fillColor=none;strokeColor=inherit;top=0;left=0;bottom=0;right=0;" vertex="1" parent="pyn8TXAOzBxaNTXYstjd-40">
          <mxGeometry width="30" height="30" as="geometry">
            <mxRectangle width="30" height="30" as="alternateBounds" />
          </mxGeometry>
        </mxCell>
        <mxCell id="pyn8TXAOzBxaNTXYstjd-42" value="`name` varchar(191) COLLATE utf8mb4_unicode_ci NOT NULL" style="shape=partialRectangle;overflow=hidden;connectable=0;fillColor=none;align=left;strokeColor=inherit;top=0;left=0;bottom=0;right=0;spacingLeft=6;" vertex="1" parent="pyn8TXAOzBxaNTXYstjd-40">
          <mxGeometry x="30" width="290" height="30" as="geometry">
            <mxRectangle width="290" height="30" as="alternateBounds" />
          </mxGeometry>
        </mxCell>
        <mxCell id="pyn8TXAOzBxaNTXYstjd-43" value="" style="shape=tableRow;horizontal=0;startSize=0;swimlaneHead=0;swimlaneBody=0;fillColor=none;collapsible=0;dropTarget=0;points=[[0,0.5],[1,0.5]];portConstraint=eastwest;strokeColor=inherit;top=0;left=0;right=0;bottom=0;" vertex="1" parent="pyn8TXAOzBxaNTXYstjd-33">
          <mxGeometry y="120" width="320" height="30" as="geometry" />
        </mxCell>
        <mxCell id="pyn8TXAOzBxaNTXYstjd-44" value="" style="shape=partialRectangle;overflow=hidden;connectable=0;fillColor=none;strokeColor=inherit;top=0;left=0;bottom=0;right=0;" vertex="1" parent="pyn8TXAOzBxaNTXYstjd-43">
          <mxGeometry width="30" height="30" as="geometry">
            <mxRectangle width="30" height="30" as="alternateBounds" />
          </mxGeometry>
        </mxCell>
        <mxCell id="pyn8TXAOzBxaNTXYstjd-45" value="`discount_in_percent` int NOT NULL" style="shape=partialRectangle;overflow=hidden;connectable=0;fillColor=none;align=left;strokeColor=inherit;top=0;left=0;bottom=0;right=0;spacingLeft=6;" vertex="1" parent="pyn8TXAOzBxaNTXYstjd-43">
          <mxGeometry x="30" width="290" height="30" as="geometry">
            <mxRectangle width="290" height="30" as="alternateBounds" />
          </mxGeometry>
        </mxCell>
        <mxCell id="pyn8TXAOzBxaNTXYstjd-46" value="" style="shape=tableRow;horizontal=0;startSize=0;swimlaneHead=0;swimlaneBody=0;fillColor=none;collapsible=0;dropTarget=0;points=[[0,0.5],[1,0.5]];portConstraint=eastwest;strokeColor=inherit;top=0;left=0;right=0;bottom=0;" vertex="1" parent="pyn8TXAOzBxaNTXYstjd-33">
          <mxGeometry y="150" width="320" height="30" as="geometry" />
        </mxCell>
        <mxCell id="pyn8TXAOzBxaNTXYstjd-47" value="" style="shape=partialRectangle;overflow=hidden;connectable=0;fillColor=none;strokeColor=inherit;top=0;left=0;bottom=0;right=0;" vertex="1" parent="pyn8TXAOzBxaNTXYstjd-46">
          <mxGeometry width="30" height="30" as="geometry">
            <mxRectangle width="30" height="30" as="alternateBounds" />
          </mxGeometry>
        </mxCell>
        <mxCell id="pyn8TXAOzBxaNTXYstjd-48" value="`discount_in_price` int NOT NULL" style="shape=partialRectangle;overflow=hidden;connectable=0;fillColor=none;align=left;strokeColor=inherit;top=0;left=0;bottom=0;right=0;spacingLeft=6;" vertex="1" parent="pyn8TXAOzBxaNTXYstjd-46">
          <mxGeometry x="30" width="290" height="30" as="geometry">
            <mxRectangle width="290" height="30" as="alternateBounds" />
          </mxGeometry>
        </mxCell>
        <mxCell id="pyn8TXAOzBxaNTXYstjd-49" value="" style="shape=tableRow;horizontal=0;startSize=0;swimlaneHead=0;swimlaneBody=0;fillColor=none;collapsible=0;dropTarget=0;points=[[0,0.5],[1,0.5]];portConstraint=eastwest;strokeColor=inherit;top=0;left=0;right=0;bottom=0;" vertex="1" parent="pyn8TXAOzBxaNTXYstjd-33">
          <mxGeometry y="180" width="320" height="30" as="geometry" />
        </mxCell>
        <mxCell id="pyn8TXAOzBxaNTXYstjd-50" value="" style="shape=partialRectangle;overflow=hidden;connectable=0;fillColor=none;strokeColor=inherit;top=0;left=0;bottom=0;right=0;" vertex="1" parent="pyn8TXAOzBxaNTXYstjd-49">
          <mxGeometry width="30" height="30" as="geometry">
            <mxRectangle width="30" height="30" as="alternateBounds" />
          </mxGeometry>
        </mxCell>
        <mxCell id="pyn8TXAOzBxaNTXYstjd-51" value="`type_discount` enum(&#39;FLASH_SALE&#39;,&#39;PAYDAY&#39;,&#39;OTHER&#39;) COLLATE utf8mb4_unicode_ci NOT NULL DEFAULT &#39;OTHER&#39;" style="shape=partialRectangle;overflow=hidden;connectable=0;fillColor=none;align=left;strokeColor=inherit;top=0;left=0;bottom=0;right=0;spacingLeft=6;" vertex="1" parent="pyn8TXAOzBxaNTXYstjd-49">
          <mxGeometry x="30" width="290" height="30" as="geometry">
            <mxRectangle width="290" height="30" as="alternateBounds" />
          </mxGeometry>
        </mxCell>
        <mxCell id="pyn8TXAOzBxaNTXYstjd-52" value="`historyorder`" style="shape=table;startSize=30;container=1;collapsible=1;childLayout=tableLayout;fixedRows=1;rowLines=0;fontStyle=1;align=center;resizeLast=1;" vertex="1" parent="1">
          <mxGeometry x="-1120" y="140" width="320" height="270" as="geometry" />
        </mxCell>
        <mxCell id="pyn8TXAOzBxaNTXYstjd-53" value="" style="shape=tableRow;horizontal=0;startSize=0;swimlaneHead=0;swimlaneBody=0;fillColor=none;collapsible=0;dropTarget=0;points=[[0,0.5],[1,0.5]];portConstraint=eastwest;strokeColor=inherit;top=0;left=0;right=0;bottom=0;" vertex="1" parent="pyn8TXAOzBxaNTXYstjd-52">
          <mxGeometry y="30" width="320" height="30" as="geometry" />
        </mxCell>
        <mxCell id="pyn8TXAOzBxaNTXYstjd-54" value="" style="shape=partialRectangle;overflow=hidden;connectable=0;fillColor=none;strokeColor=inherit;top=0;left=0;bottom=0;right=0;" vertex="1" parent="pyn8TXAOzBxaNTXYstjd-53">
          <mxGeometry width="30" height="30" as="geometry">
            <mxRectangle width="30" height="30" as="alternateBounds" />
          </mxGeometry>
        </mxCell>
        <mxCell id="pyn8TXAOzBxaNTXYstjd-55" value="`id_transaction` int NOT NULL" style="shape=partialRectangle;overflow=hidden;connectable=0;fillColor=none;align=left;strokeColor=inherit;top=0;left=0;bottom=0;right=0;spacingLeft=6;" vertex="1" parent="pyn8TXAOzBxaNTXYstjd-53">
          <mxGeometry x="30" width="290" height="30" as="geometry">
            <mxRectangle width="290" height="30" as="alternateBounds" />
          </mxGeometry>
        </mxCell>
        <mxCell id="pyn8TXAOzBxaNTXYstjd-56" value="" style="shape=tableRow;horizontal=0;startSize=0;swimlaneHead=0;swimlaneBody=0;fillColor=none;collapsible=0;dropTarget=0;points=[[0,0.5],[1,0.5]];portConstraint=eastwest;strokeColor=inherit;top=0;left=0;right=0;bottom=0;" vertex="1" parent="pyn8TXAOzBxaNTXYstjd-52">
          <mxGeometry y="60" width="320" height="30" as="geometry" />
        </mxCell>
        <mxCell id="pyn8TXAOzBxaNTXYstjd-57" value="" style="shape=partialRectangle;overflow=hidden;connectable=0;fillColor=none;strokeColor=inherit;top=0;left=0;bottom=0;right=0;" vertex="1" parent="pyn8TXAOzBxaNTXYstjd-56">
          <mxGeometry width="30" height="30" as="geometry">
            <mxRectangle width="30" height="30" as="alternateBounds" />
          </mxGeometry>
        </mxCell>
        <mxCell id="pyn8TXAOzBxaNTXYstjd-58" value="`id_user` int NOT NULL" style="shape=partialRectangle;overflow=hidden;connectable=0;fillColor=none;align=left;strokeColor=inherit;top=0;left=0;bottom=0;right=0;spacingLeft=6;" vertex="1" parent="pyn8TXAOzBxaNTXYstjd-56">
          <mxGeometry x="30" width="290" height="30" as="geometry">
            <mxRectangle width="290" height="30" as="alternateBounds" />
          </mxGeometry>
        </mxCell>
        <mxCell id="pyn8TXAOzBxaNTXYstjd-59" value="" style="shape=tableRow;horizontal=0;startSize=0;swimlaneHead=0;swimlaneBody=0;fillColor=none;collapsible=0;dropTarget=0;points=[[0,0.5],[1,0.5]];portConstraint=eastwest;strokeColor=inherit;top=0;left=0;right=0;bottom=0;" vertex="1" parent="pyn8TXAOzBxaNTXYstjd-52">
          <mxGeometry y="90" width="320" height="30" as="geometry" />
        </mxCell>
        <mxCell id="pyn8TXAOzBxaNTXYstjd-60" value="" style="shape=partialRectangle;overflow=hidden;connectable=0;fillColor=none;strokeColor=inherit;top=0;left=0;bottom=0;right=0;" vertex="1" parent="pyn8TXAOzBxaNTXYstjd-59">
          <mxGeometry width="30" height="30" as="geometry">
            <mxRectangle width="30" height="30" as="alternateBounds" />
          </mxGeometry>
        </mxCell>
        <mxCell id="pyn8TXAOzBxaNTXYstjd-61" value="`id_payment` int NOT NULL" style="shape=partialRectangle;overflow=hidden;connectable=0;fillColor=none;align=left;strokeColor=inherit;top=0;left=0;bottom=0;right=0;spacingLeft=6;" vertex="1" parent="pyn8TXAOzBxaNTXYstjd-59">
          <mxGeometry x="30" width="290" height="30" as="geometry">
            <mxRectangle width="290" height="30" as="alternateBounds" />
          </mxGeometry>
        </mxCell>
        <mxCell id="pyn8TXAOzBxaNTXYstjd-62" value="" style="shape=tableRow;horizontal=0;startSize=0;swimlaneHead=0;swimlaneBody=0;fillColor=none;collapsible=0;dropTarget=0;points=[[0,0.5],[1,0.5]];portConstraint=eastwest;strokeColor=inherit;top=0;left=0;right=0;bottom=0;" vertex="1" parent="pyn8TXAOzBxaNTXYstjd-52">
          <mxGeometry y="120" width="320" height="30" as="geometry" />
        </mxCell>
        <mxCell id="pyn8TXAOzBxaNTXYstjd-63" value="" style="shape=partialRectangle;overflow=hidden;connectable=0;fillColor=none;strokeColor=inherit;top=0;left=0;bottom=0;right=0;" vertex="1" parent="pyn8TXAOzBxaNTXYstjd-62">
          <mxGeometry width="30" height="30" as="geometry">
            <mxRectangle width="30" height="30" as="alternateBounds" />
          </mxGeometry>
        </mxCell>
        <mxCell id="pyn8TXAOzBxaNTXYstjd-64" value="`id_address` int NOT NULL" style="shape=partialRectangle;overflow=hidden;connectable=0;fillColor=none;align=left;strokeColor=inherit;top=0;left=0;bottom=0;right=0;spacingLeft=6;" vertex="1" parent="pyn8TXAOzBxaNTXYstjd-62">
          <mxGeometry x="30" width="290" height="30" as="geometry">
            <mxRectangle width="290" height="30" as="alternateBounds" />
          </mxGeometry>
        </mxCell>
        <mxCell id="pyn8TXAOzBxaNTXYstjd-65" value="" style="shape=tableRow;horizontal=0;startSize=0;swimlaneHead=0;swimlaneBody=0;fillColor=none;collapsible=0;dropTarget=0;points=[[0,0.5],[1,0.5]];portConstraint=eastwest;strokeColor=inherit;top=0;left=0;right=0;bottom=0;" vertex="1" parent="pyn8TXAOzBxaNTXYstjd-52">
          <mxGeometry y="150" width="320" height="30" as="geometry" />
        </mxCell>
        <mxCell id="pyn8TXAOzBxaNTXYstjd-66" value="" style="shape=partialRectangle;overflow=hidden;connectable=0;fillColor=none;strokeColor=inherit;top=0;left=0;bottom=0;right=0;" vertex="1" parent="pyn8TXAOzBxaNTXYstjd-65">
          <mxGeometry width="30" height="30" as="geometry">
            <mxRectangle width="30" height="30" as="alternateBounds" />
          </mxGeometry>
        </mxCell>
        <mxCell id="pyn8TXAOzBxaNTXYstjd-67" value="`payment_status` enum(&#39;PENDING&#39;,&#39;SUCCESS&#39;,&#39;FAILED&#39;,&#39;EXPIRED&#39;) COLLATE utf8mb4_unicode_ci NOT NULL DEFAULT &#39;PENDING&#39;" style="shape=partialRectangle;overflow=hidden;connectable=0;fillColor=none;align=left;strokeColor=inherit;top=0;left=0;bottom=0;right=0;spacingLeft=6;" vertex="1" parent="pyn8TXAOzBxaNTXYstjd-65">
          <mxGeometry x="30" width="290" height="30" as="geometry">
            <mxRectangle width="290" height="30" as="alternateBounds" />
          </mxGeometry>
        </mxCell>
        <mxCell id="pyn8TXAOzBxaNTXYstjd-68" value="" style="shape=tableRow;horizontal=0;startSize=0;swimlaneHead=0;swimlaneBody=0;fillColor=none;collapsible=0;dropTarget=0;points=[[0,0.5],[1,0.5]];portConstraint=eastwest;strokeColor=inherit;top=0;left=0;right=0;bottom=0;" vertex="1" parent="pyn8TXAOzBxaNTXYstjd-52">
          <mxGeometry y="180" width="320" height="30" as="geometry" />
        </mxCell>
        <mxCell id="pyn8TXAOzBxaNTXYstjd-69" value="" style="shape=partialRectangle;overflow=hidden;connectable=0;fillColor=none;strokeColor=inherit;top=0;left=0;bottom=0;right=0;" vertex="1" parent="pyn8TXAOzBxaNTXYstjd-68">
          <mxGeometry width="30" height="30" as="geometry">
            <mxRectangle width="30" height="30" as="alternateBounds" />
          </mxGeometry>
        </mxCell>
        <mxCell id="pyn8TXAOzBxaNTXYstjd-70" value="`shipping_status` enum(&#39;PENDING&#39;,&#39;PACKAGING&#39;,&#39;SHIPPING&#39;,&#39;DELIVERED&#39;,&#39;CANCELLED&#39;,&#39;FAILED&#39;) COLLATE utf8mb4_unicode_ci NOT NULL DEFAULT &#39;PENDING&#39;" style="shape=partialRectangle;overflow=hidden;connectable=0;fillColor=none;align=left;strokeColor=inherit;top=0;left=0;bottom=0;right=0;spacingLeft=6;" vertex="1" parent="pyn8TXAOzBxaNTXYstjd-68">
          <mxGeometry x="30" width="290" height="30" as="geometry">
            <mxRectangle width="290" height="30" as="alternateBounds" />
          </mxGeometry>
        </mxCell>
        <mxCell id="pyn8TXAOzBxaNTXYstjd-71" value="" style="shape=tableRow;horizontal=0;startSize=0;swimlaneHead=0;swimlaneBody=0;fillColor=none;collapsible=0;dropTarget=0;points=[[0,0.5],[1,0.5]];portConstraint=eastwest;strokeColor=inherit;top=0;left=0;right=0;bottom=0;" vertex="1" parent="pyn8TXAOzBxaNTXYstjd-52">
          <mxGeometry y="210" width="320" height="30" as="geometry" />
        </mxCell>
        <mxCell id="pyn8TXAOzBxaNTXYstjd-72" value="" style="shape=partialRectangle;overflow=hidden;connectable=0;fillColor=none;strokeColor=inherit;top=0;left=0;bottom=0;right=0;" vertex="1" parent="pyn8TXAOzBxaNTXYstjd-71">
          <mxGeometry width="30" height="30" as="geometry">
            <mxRectangle width="30" height="30" as="alternateBounds" />
          </mxGeometry>
        </mxCell>
        <mxCell id="pyn8TXAOzBxaNTXYstjd-73" value="`created_at` datetime(3) NOT NULL DEFAULT CURRENT_TIMESTAMP(3)" style="shape=partialRectangle;overflow=hidden;connectable=0;fillColor=none;align=left;strokeColor=inherit;top=0;left=0;bottom=0;right=0;spacingLeft=6;" vertex="1" parent="pyn8TXAOzBxaNTXYstjd-71">
          <mxGeometry x="30" width="290" height="30" as="geometry">
            <mxRectangle width="290" height="30" as="alternateBounds" />
          </mxGeometry>
        </mxCell>
        <mxCell id="pyn8TXAOzBxaNTXYstjd-74" value="" style="shape=tableRow;horizontal=0;startSize=0;swimlaneHead=0;swimlaneBody=0;fillColor=none;collapsible=0;dropTarget=0;points=[[0,0.5],[1,0.5]];portConstraint=eastwest;strokeColor=inherit;top=0;left=0;right=0;bottom=0;" vertex="1" parent="pyn8TXAOzBxaNTXYstjd-52">
          <mxGeometry y="240" width="320" height="30" as="geometry" />
        </mxCell>
        <mxCell id="pyn8TXAOzBxaNTXYstjd-75" value="" style="shape=partialRectangle;overflow=hidden;connectable=0;fillColor=none;strokeColor=inherit;top=0;left=0;bottom=0;right=0;" vertex="1" parent="pyn8TXAOzBxaNTXYstjd-74">
          <mxGeometry width="30" height="30" as="geometry">
            <mxRectangle width="30" height="30" as="alternateBounds" />
          </mxGeometry>
        </mxCell>
        <mxCell id="pyn8TXAOzBxaNTXYstjd-76" value="`updated_at` datetime(3) NOT NULL" style="shape=partialRectangle;overflow=hidden;connectable=0;fillColor=none;align=left;strokeColor=inherit;top=0;left=0;bottom=0;right=0;spacingLeft=6;" vertex="1" parent="pyn8TXAOzBxaNTXYstjd-74">
          <mxGeometry x="30" width="290" height="30" as="geometry">
            <mxRectangle width="290" height="30" as="alternateBounds" />
          </mxGeometry>
        </mxCell>
        <mxCell id="pyn8TXAOzBxaNTXYstjd-77" value="`orderedproducts`" style="shape=table;startSize=30;container=1;collapsible=1;childLayout=tableLayout;fixedRows=1;rowLines=0;fontStyle=1;align=center;resizeLast=1;" vertex="1" parent="1">
          <mxGeometry x="-1120" y="440" width="320" height="180" as="geometry" />
        </mxCell>
        <mxCell id="pyn8TXAOzBxaNTXYstjd-78" value="" style="shape=tableRow;horizontal=0;startSize=0;swimlaneHead=0;swimlaneBody=0;fillColor=none;collapsible=0;dropTarget=0;points=[[0,0.5],[1,0.5]];portConstraint=eastwest;strokeColor=inherit;top=0;left=0;right=0;bottom=0;" vertex="1" parent="pyn8TXAOzBxaNTXYstjd-77">
          <mxGeometry y="30" width="320" height="30" as="geometry" />
        </mxCell>
        <mxCell id="pyn8TXAOzBxaNTXYstjd-79" value="" style="shape=partialRectangle;overflow=hidden;connectable=0;fillColor=none;strokeColor=inherit;top=0;left=0;bottom=0;right=0;" vertex="1" parent="pyn8TXAOzBxaNTXYstjd-78">
          <mxGeometry width="30" height="30" as="geometry">
            <mxRectangle width="30" height="30" as="alternateBounds" />
          </mxGeometry>
        </mxCell>
        <mxCell id="pyn8TXAOzBxaNTXYstjd-80" value="`id` int NOT NULL" style="shape=partialRectangle;overflow=hidden;connectable=0;fillColor=none;align=left;strokeColor=inherit;top=0;left=0;bottom=0;right=0;spacingLeft=6;" vertex="1" parent="pyn8TXAOzBxaNTXYstjd-78">
          <mxGeometry x="30" width="290" height="30" as="geometry">
            <mxRectangle width="290" height="30" as="alternateBounds" />
          </mxGeometry>
        </mxCell>
        <mxCell id="pyn8TXAOzBxaNTXYstjd-81" value="" style="shape=tableRow;horizontal=0;startSize=0;swimlaneHead=0;swimlaneBody=0;fillColor=none;collapsible=0;dropTarget=0;points=[[0,0.5],[1,0.5]];portConstraint=eastwest;strokeColor=inherit;top=0;left=0;right=0;bottom=0;" vertex="1" parent="pyn8TXAOzBxaNTXYstjd-77">
          <mxGeometry y="60" width="320" height="30" as="geometry" />
        </mxCell>
        <mxCell id="pyn8TXAOzBxaNTXYstjd-82" value="" style="shape=partialRectangle;overflow=hidden;connectable=0;fillColor=none;strokeColor=inherit;top=0;left=0;bottom=0;right=0;" vertex="1" parent="pyn8TXAOzBxaNTXYstjd-81">
          <mxGeometry width="30" height="30" as="geometry">
            <mxRectangle width="30" height="30" as="alternateBounds" />
          </mxGeometry>
        </mxCell>
        <mxCell id="pyn8TXAOzBxaNTXYstjd-83" value="`id_product` int NOT NULL" style="shape=partialRectangle;overflow=hidden;connectable=0;fillColor=none;align=left;strokeColor=inherit;top=0;left=0;bottom=0;right=0;spacingLeft=6;" vertex="1" parent="pyn8TXAOzBxaNTXYstjd-81">
          <mxGeometry x="30" width="290" height="30" as="geometry">
            <mxRectangle width="290" height="30" as="alternateBounds" />
          </mxGeometry>
        </mxCell>
        <mxCell id="pyn8TXAOzBxaNTXYstjd-84" value="" style="shape=tableRow;horizontal=0;startSize=0;swimlaneHead=0;swimlaneBody=0;fillColor=none;collapsible=0;dropTarget=0;points=[[0,0.5],[1,0.5]];portConstraint=eastwest;strokeColor=inherit;top=0;left=0;right=0;bottom=0;" vertex="1" parent="pyn8TXAOzBxaNTXYstjd-77">
          <mxGeometry y="90" width="320" height="30" as="geometry" />
        </mxCell>
        <mxCell id="pyn8TXAOzBxaNTXYstjd-85" value="" style="shape=partialRectangle;overflow=hidden;connectable=0;fillColor=none;strokeColor=inherit;top=0;left=0;bottom=0;right=0;" vertex="1" parent="pyn8TXAOzBxaNTXYstjd-84">
          <mxGeometry width="30" height="30" as="geometry">
            <mxRectangle width="30" height="30" as="alternateBounds" />
          </mxGeometry>
        </mxCell>
        <mxCell id="pyn8TXAOzBxaNTXYstjd-86" value="`qty` int NOT NULL" style="shape=partialRectangle;overflow=hidden;connectable=0;fillColor=none;align=left;strokeColor=inherit;top=0;left=0;bottom=0;right=0;spacingLeft=6;" vertex="1" parent="pyn8TXAOzBxaNTXYstjd-84">
          <mxGeometry x="30" width="290" height="30" as="geometry">
            <mxRectangle width="290" height="30" as="alternateBounds" />
          </mxGeometry>
        </mxCell>
        <mxCell id="pyn8TXAOzBxaNTXYstjd-87" value="" style="shape=tableRow;horizontal=0;startSize=0;swimlaneHead=0;swimlaneBody=0;fillColor=none;collapsible=0;dropTarget=0;points=[[0,0.5],[1,0.5]];portConstraint=eastwest;strokeColor=inherit;top=0;left=0;right=0;bottom=0;" vertex="1" parent="pyn8TXAOzBxaNTXYstjd-77">
          <mxGeometry y="120" width="320" height="30" as="geometry" />
        </mxCell>
        <mxCell id="pyn8TXAOzBxaNTXYstjd-88" value="" style="shape=partialRectangle;overflow=hidden;connectable=0;fillColor=none;strokeColor=inherit;top=0;left=0;bottom=0;right=0;" vertex="1" parent="pyn8TXAOzBxaNTXYstjd-87">
          <mxGeometry width="30" height="30" as="geometry">
            <mxRectangle width="30" height="30" as="alternateBounds" />
          </mxGeometry>
        </mxCell>
        <mxCell id="pyn8TXAOzBxaNTXYstjd-89" value="`total_price` int NOT NULL" style="shape=partialRectangle;overflow=hidden;connectable=0;fillColor=none;align=left;strokeColor=inherit;top=0;left=0;bottom=0;right=0;spacingLeft=6;" vertex="1" parent="pyn8TXAOzBxaNTXYstjd-87">
          <mxGeometry x="30" width="290" height="30" as="geometry">
            <mxRectangle width="290" height="30" as="alternateBounds" />
          </mxGeometry>
        </mxCell>
        <mxCell id="pyn8TXAOzBxaNTXYstjd-90" value="" style="shape=tableRow;horizontal=0;startSize=0;swimlaneHead=0;swimlaneBody=0;fillColor=none;collapsible=0;dropTarget=0;points=[[0,0.5],[1,0.5]];portConstraint=eastwest;strokeColor=inherit;top=0;left=0;right=0;bottom=0;" vertex="1" parent="pyn8TXAOzBxaNTXYstjd-77">
          <mxGeometry y="150" width="320" height="30" as="geometry" />
        </mxCell>
        <mxCell id="pyn8TXAOzBxaNTXYstjd-91" value="" style="shape=partialRectangle;overflow=hidden;connectable=0;fillColor=none;strokeColor=inherit;top=0;left=0;bottom=0;right=0;" vertex="1" parent="pyn8TXAOzBxaNTXYstjd-90">
          <mxGeometry width="30" height="30" as="geometry">
            <mxRectangle width="30" height="30" as="alternateBounds" />
          </mxGeometry>
        </mxCell>
        <mxCell id="pyn8TXAOzBxaNTXYstjd-92" value="`history_order_id_transaction` int DEFAULT NULL" style="shape=partialRectangle;overflow=hidden;connectable=0;fillColor=none;align=left;strokeColor=inherit;top=0;left=0;bottom=0;right=0;spacingLeft=6;" vertex="1" parent="pyn8TXAOzBxaNTXYstjd-90">
          <mxGeometry x="30" width="290" height="30" as="geometry">
            <mxRectangle width="290" height="30" as="alternateBounds" />
          </mxGeometry>
        </mxCell>
        <mxCell id="pyn8TXAOzBxaNTXYstjd-93" value="`payments`" style="shape=table;startSize=30;container=1;collapsible=1;childLayout=tableLayout;fixedRows=1;rowLines=0;fontStyle=1;align=center;resizeLast=1;" vertex="1" parent="1">
          <mxGeometry x="-1120" y="680" width="320" height="240" as="geometry" />
        </mxCell>
        <mxCell id="pyn8TXAOzBxaNTXYstjd-94" value="" style="shape=tableRow;horizontal=0;startSize=0;swimlaneHead=0;swimlaneBody=0;fillColor=none;collapsible=0;dropTarget=0;points=[[0,0.5],[1,0.5]];portConstraint=eastwest;strokeColor=inherit;top=0;left=0;right=0;bottom=0;" vertex="1" parent="pyn8TXAOzBxaNTXYstjd-93">
          <mxGeometry y="30" width="320" height="30" as="geometry" />
        </mxCell>
        <mxCell id="pyn8TXAOzBxaNTXYstjd-95" value="" style="shape=partialRectangle;overflow=hidden;connectable=0;fillColor=none;strokeColor=inherit;top=0;left=0;bottom=0;right=0;" vertex="1" parent="pyn8TXAOzBxaNTXYstjd-94">
          <mxGeometry width="30" height="30" as="geometry">
            <mxRectangle width="30" height="30" as="alternateBounds" />
          </mxGeometry>
        </mxCell>
        <mxCell id="pyn8TXAOzBxaNTXYstjd-96" value="`id_payment` int NOT NULL" style="shape=partialRectangle;overflow=hidden;connectable=0;fillColor=none;align=left;strokeColor=inherit;top=0;left=0;bottom=0;right=0;spacingLeft=6;" vertex="1" parent="pyn8TXAOzBxaNTXYstjd-94">
          <mxGeometry x="30" width="290" height="30" as="geometry">
            <mxRectangle width="290" height="30" as="alternateBounds" />
          </mxGeometry>
        </mxCell>
        <mxCell id="pyn8TXAOzBxaNTXYstjd-97" value="" style="shape=tableRow;horizontal=0;startSize=0;swimlaneHead=0;swimlaneBody=0;fillColor=none;collapsible=0;dropTarget=0;points=[[0,0.5],[1,0.5]];portConstraint=eastwest;strokeColor=inherit;top=0;left=0;right=0;bottom=0;" vertex="1" parent="pyn8TXAOzBxaNTXYstjd-93">
          <mxGeometry y="60" width="320" height="30" as="geometry" />
        </mxCell>
        <mxCell id="pyn8TXAOzBxaNTXYstjd-98" value="" style="shape=partialRectangle;overflow=hidden;connectable=0;fillColor=none;strokeColor=inherit;top=0;left=0;bottom=0;right=0;" vertex="1" parent="pyn8TXAOzBxaNTXYstjd-97">
          <mxGeometry width="30" height="30" as="geometry">
            <mxRectangle width="30" height="30" as="alternateBounds" />
          </mxGeometry>
        </mxCell>
        <mxCell id="pyn8TXAOzBxaNTXYstjd-99" value="`name` varchar(191) COLLATE utf8mb4_unicode_ci NOT NULL" style="shape=partialRectangle;overflow=hidden;connectable=0;fillColor=none;align=left;strokeColor=inherit;top=0;left=0;bottom=0;right=0;spacingLeft=6;" vertex="1" parent="pyn8TXAOzBxaNTXYstjd-97">
          <mxGeometry x="30" width="290" height="30" as="geometry">
            <mxRectangle width="290" height="30" as="alternateBounds" />
          </mxGeometry>
        </mxCell>
        <mxCell id="pyn8TXAOzBxaNTXYstjd-100" value="" style="shape=tableRow;horizontal=0;startSize=0;swimlaneHead=0;swimlaneBody=0;fillColor=none;collapsible=0;dropTarget=0;points=[[0,0.5],[1,0.5]];portConstraint=eastwest;strokeColor=inherit;top=0;left=0;right=0;bottom=0;" vertex="1" parent="pyn8TXAOzBxaNTXYstjd-93">
          <mxGeometry y="90" width="320" height="30" as="geometry" />
        </mxCell>
        <mxCell id="pyn8TXAOzBxaNTXYstjd-101" value="" style="shape=partialRectangle;overflow=hidden;connectable=0;fillColor=none;strokeColor=inherit;top=0;left=0;bottom=0;right=0;" vertex="1" parent="pyn8TXAOzBxaNTXYstjd-100">
          <mxGeometry width="30" height="30" as="geometry">
            <mxRectangle width="30" height="30" as="alternateBounds" />
          </mxGeometry>
        </mxCell>
        <mxCell id="pyn8TXAOzBxaNTXYstjd-102" value="`bank_name` varchar(191) COLLATE utf8mb4_unicode_ci NOT NULL" style="shape=partialRectangle;overflow=hidden;connectable=0;fillColor=none;align=left;strokeColor=inherit;top=0;left=0;bottom=0;right=0;spacingLeft=6;" vertex="1" parent="pyn8TXAOzBxaNTXYstjd-100">
          <mxGeometry x="30" width="290" height="30" as="geometry">
            <mxRectangle width="290" height="30" as="alternateBounds" />
          </mxGeometry>
        </mxCell>
        <mxCell id="pyn8TXAOzBxaNTXYstjd-103" value="" style="shape=tableRow;horizontal=0;startSize=0;swimlaneHead=0;swimlaneBody=0;fillColor=none;collapsible=0;dropTarget=0;points=[[0,0.5],[1,0.5]];portConstraint=eastwest;strokeColor=inherit;top=0;left=0;right=0;bottom=0;" vertex="1" parent="pyn8TXAOzBxaNTXYstjd-93">
          <mxGeometry y="120" width="320" height="30" as="geometry" />
        </mxCell>
        <mxCell id="pyn8TXAOzBxaNTXYstjd-104" value="" style="shape=partialRectangle;overflow=hidden;connectable=0;fillColor=none;strokeColor=inherit;top=0;left=0;bottom=0;right=0;" vertex="1" parent="pyn8TXAOzBxaNTXYstjd-103">
          <mxGeometry width="30" height="30" as="geometry">
            <mxRectangle width="30" height="30" as="alternateBounds" />
          </mxGeometry>
        </mxCell>
        <mxCell id="pyn8TXAOzBxaNTXYstjd-105" value="`account_number` varchar(191) COLLATE utf8mb4_unicode_ci DEFAULT NULL" style="shape=partialRectangle;overflow=hidden;connectable=0;fillColor=none;align=left;strokeColor=inherit;top=0;left=0;bottom=0;right=0;spacingLeft=6;" vertex="1" parent="pyn8TXAOzBxaNTXYstjd-103">
          <mxGeometry x="30" width="290" height="30" as="geometry">
            <mxRectangle width="290" height="30" as="alternateBounds" />
          </mxGeometry>
        </mxCell>
        <mxCell id="pyn8TXAOzBxaNTXYstjd-106" value="" style="shape=tableRow;horizontal=0;startSize=0;swimlaneHead=0;swimlaneBody=0;fillColor=none;collapsible=0;dropTarget=0;points=[[0,0.5],[1,0.5]];portConstraint=eastwest;strokeColor=inherit;top=0;left=0;right=0;bottom=0;" vertex="1" parent="pyn8TXAOzBxaNTXYstjd-93">
          <mxGeometry y="150" width="320" height="30" as="geometry" />
        </mxCell>
        <mxCell id="pyn8TXAOzBxaNTXYstjd-107" value="" style="shape=partialRectangle;overflow=hidden;connectable=0;fillColor=none;strokeColor=inherit;top=0;left=0;bottom=0;right=0;" vertex="1" parent="pyn8TXAOzBxaNTXYstjd-106">
          <mxGeometry width="30" height="30" as="geometry">
            <mxRectangle width="30" height="30" as="alternateBounds" />
          </mxGeometry>
        </mxCell>
        <mxCell id="pyn8TXAOzBxaNTXYstjd-108" value="`account_name` varchar(191) COLLATE utf8mb4_unicode_ci NOT NULL" style="shape=partialRectangle;overflow=hidden;connectable=0;fillColor=none;align=left;strokeColor=inherit;top=0;left=0;bottom=0;right=0;spacingLeft=6;" vertex="1" parent="pyn8TXAOzBxaNTXYstjd-106">
          <mxGeometry x="30" width="290" height="30" as="geometry">
            <mxRectangle width="290" height="30" as="alternateBounds" />
          </mxGeometry>
        </mxCell>
        <mxCell id="pyn8TXAOzBxaNTXYstjd-109" value="" style="shape=tableRow;horizontal=0;startSize=0;swimlaneHead=0;swimlaneBody=0;fillColor=none;collapsible=0;dropTarget=0;points=[[0,0.5],[1,0.5]];portConstraint=eastwest;strokeColor=inherit;top=0;left=0;right=0;bottom=0;" vertex="1" parent="pyn8TXAOzBxaNTXYstjd-93">
          <mxGeometry y="180" width="320" height="30" as="geometry" />
        </mxCell>
        <mxCell id="pyn8TXAOzBxaNTXYstjd-110" value="" style="shape=partialRectangle;overflow=hidden;connectable=0;fillColor=none;strokeColor=inherit;top=0;left=0;bottom=0;right=0;" vertex="1" parent="pyn8TXAOzBxaNTXYstjd-109">
          <mxGeometry width="30" height="30" as="geometry">
            <mxRectangle width="30" height="30" as="alternateBounds" />
          </mxGeometry>
        </mxCell>
        <mxCell id="pyn8TXAOzBxaNTXYstjd-111" value="`qr_code` varchar(191) COLLATE utf8mb4_unicode_ci DEFAULT NULL" style="shape=partialRectangle;overflow=hidden;connectable=0;fillColor=none;align=left;strokeColor=inherit;top=0;left=0;bottom=0;right=0;spacingLeft=6;" vertex="1" parent="pyn8TXAOzBxaNTXYstjd-109">
          <mxGeometry x="30" width="290" height="30" as="geometry">
            <mxRectangle width="290" height="30" as="alternateBounds" />
          </mxGeometry>
        </mxCell>
        <mxCell id="pyn8TXAOzBxaNTXYstjd-112" value="" style="shape=tableRow;horizontal=0;startSize=0;swimlaneHead=0;swimlaneBody=0;fillColor=none;collapsible=0;dropTarget=0;points=[[0,0.5],[1,0.5]];portConstraint=eastwest;strokeColor=inherit;top=0;left=0;right=0;bottom=0;" vertex="1" parent="pyn8TXAOzBxaNTXYstjd-93">
          <mxGeometry y="210" width="320" height="30" as="geometry" />
        </mxCell>
        <mxCell id="pyn8TXAOzBxaNTXYstjd-113" value="" style="shape=partialRectangle;overflow=hidden;connectable=0;fillColor=none;strokeColor=inherit;top=0;left=0;bottom=0;right=0;" vertex="1" parent="pyn8TXAOzBxaNTXYstjd-112">
          <mxGeometry width="30" height="30" as="geometry">
            <mxRectangle width="30" height="30" as="alternateBounds" />
          </mxGeometry>
        </mxCell>
        <mxCell id="pyn8TXAOzBxaNTXYstjd-114" value="`type` enum(&#39;BANK_TRANSFER&#39;,&#39;E_WALLET&#39;,&#39;COD&#39;,&#39;QRIS&#39;) COLLATE utf8mb4_unicode_ci NOT NULL DEFAULT &#39;BANK_TRANSFER&#39;" style="shape=partialRectangle;overflow=hidden;connectable=0;fillColor=none;align=left;strokeColor=inherit;top=0;left=0;bottom=0;right=0;spacingLeft=6;" vertex="1" parent="pyn8TXAOzBxaNTXYstjd-112">
          <mxGeometry x="30" width="290" height="30" as="geometry">
            <mxRectangle width="290" height="30" as="alternateBounds" />
          </mxGeometry>
        </mxCell>
        <mxCell id="pyn8TXAOzBxaNTXYstjd-115" value="`products`" style="shape=table;startSize=30;container=1;collapsible=1;childLayout=tableLayout;fixedRows=1;rowLines=0;fontStyle=1;align=center;resizeLast=1;" vertex="1" parent="1">
          <mxGeometry x="-1520" y="810" width="320" height="300" as="geometry" />
        </mxCell>
        <mxCell id="pyn8TXAOzBxaNTXYstjd-116" value="" style="shape=tableRow;horizontal=0;startSize=0;swimlaneHead=0;swimlaneBody=0;fillColor=none;collapsible=0;dropTarget=0;points=[[0,0.5],[1,0.5]];portConstraint=eastwest;strokeColor=inherit;top=0;left=0;right=0;bottom=0;" vertex="1" parent="pyn8TXAOzBxaNTXYstjd-115">
          <mxGeometry y="30" width="320" height="30" as="geometry" />
        </mxCell>
        <mxCell id="pyn8TXAOzBxaNTXYstjd-117" value="" style="shape=partialRectangle;overflow=hidden;connectable=0;fillColor=none;strokeColor=inherit;top=0;left=0;bottom=0;right=0;" vertex="1" parent="pyn8TXAOzBxaNTXYstjd-116">
          <mxGeometry width="30" height="30" as="geometry">
            <mxRectangle width="30" height="30" as="alternateBounds" />
          </mxGeometry>
        </mxCell>
        <mxCell id="pyn8TXAOzBxaNTXYstjd-118" value="`id_product` int NOT NULL" style="shape=partialRectangle;overflow=hidden;connectable=0;fillColor=none;align=left;strokeColor=inherit;top=0;left=0;bottom=0;right=0;spacingLeft=6;" vertex="1" parent="pyn8TXAOzBxaNTXYstjd-116">
          <mxGeometry x="30" width="290" height="30" as="geometry">
            <mxRectangle width="290" height="30" as="alternateBounds" />
          </mxGeometry>
        </mxCell>
        <mxCell id="pyn8TXAOzBxaNTXYstjd-119" value="" style="shape=tableRow;horizontal=0;startSize=0;swimlaneHead=0;swimlaneBody=0;fillColor=none;collapsible=0;dropTarget=0;points=[[0,0.5],[1,0.5]];portConstraint=eastwest;strokeColor=inherit;top=0;left=0;right=0;bottom=0;" vertex="1" parent="pyn8TXAOzBxaNTXYstjd-115">
          <mxGeometry y="60" width="320" height="30" as="geometry" />
        </mxCell>
        <mxCell id="pyn8TXAOzBxaNTXYstjd-120" value="" style="shape=partialRectangle;overflow=hidden;connectable=0;fillColor=none;strokeColor=inherit;top=0;left=0;bottom=0;right=0;" vertex="1" parent="pyn8TXAOzBxaNTXYstjd-119">
          <mxGeometry width="30" height="30" as="geometry">
            <mxRectangle width="30" height="30" as="alternateBounds" />
          </mxGeometry>
        </mxCell>
        <mxCell id="pyn8TXAOzBxaNTXYstjd-121" value="`name` varchar(191) COLLATE utf8mb4_unicode_ci NOT NULL" style="shape=partialRectangle;overflow=hidden;connectable=0;fillColor=none;align=left;strokeColor=inherit;top=0;left=0;bottom=0;right=0;spacingLeft=6;" vertex="1" parent="pyn8TXAOzBxaNTXYstjd-119">
          <mxGeometry x="30" width="290" height="30" as="geometry">
            <mxRectangle width="290" height="30" as="alternateBounds" />
          </mxGeometry>
        </mxCell>
        <mxCell id="pyn8TXAOzBxaNTXYstjd-122" value="" style="shape=tableRow;horizontal=0;startSize=0;swimlaneHead=0;swimlaneBody=0;fillColor=none;collapsible=0;dropTarget=0;points=[[0,0.5],[1,0.5]];portConstraint=eastwest;strokeColor=inherit;top=0;left=0;right=0;bottom=0;" vertex="1" parent="pyn8TXAOzBxaNTXYstjd-115">
          <mxGeometry y="90" width="320" height="30" as="geometry" />
        </mxCell>
        <mxCell id="pyn8TXAOzBxaNTXYstjd-123" value="" style="shape=partialRectangle;overflow=hidden;connectable=0;fillColor=none;strokeColor=inherit;top=0;left=0;bottom=0;right=0;" vertex="1" parent="pyn8TXAOzBxaNTXYstjd-122">
          <mxGeometry width="30" height="30" as="geometry">
            <mxRectangle width="30" height="30" as="alternateBounds" />
          </mxGeometry>
        </mxCell>
        <mxCell id="pyn8TXAOzBxaNTXYstjd-124" value="`price` int NOT NULL" style="shape=partialRectangle;overflow=hidden;connectable=0;fillColor=none;align=left;strokeColor=inherit;top=0;left=0;bottom=0;right=0;spacingLeft=6;" vertex="1" parent="pyn8TXAOzBxaNTXYstjd-122">
          <mxGeometry x="30" width="290" height="30" as="geometry">
            <mxRectangle width="290" height="30" as="alternateBounds" />
          </mxGeometry>
        </mxCell>
        <mxCell id="pyn8TXAOzBxaNTXYstjd-125" value="" style="shape=tableRow;horizontal=0;startSize=0;swimlaneHead=0;swimlaneBody=0;fillColor=none;collapsible=0;dropTarget=0;points=[[0,0.5],[1,0.5]];portConstraint=eastwest;strokeColor=inherit;top=0;left=0;right=0;bottom=0;" vertex="1" parent="pyn8TXAOzBxaNTXYstjd-115">
          <mxGeometry y="120" width="320" height="30" as="geometry" />
        </mxCell>
        <mxCell id="pyn8TXAOzBxaNTXYstjd-126" value="" style="shape=partialRectangle;overflow=hidden;connectable=0;fillColor=none;strokeColor=inherit;top=0;left=0;bottom=0;right=0;" vertex="1" parent="pyn8TXAOzBxaNTXYstjd-125">
          <mxGeometry width="30" height="30" as="geometry">
            <mxRectangle width="30" height="30" as="alternateBounds" />
          </mxGeometry>
        </mxCell>
        <mxCell id="pyn8TXAOzBxaNTXYstjd-127" value="`image` varchar(191) COLLATE utf8mb4_unicode_ci NOT NULL" style="shape=partialRectangle;overflow=hidden;connectable=0;fillColor=none;align=left;strokeColor=inherit;top=0;left=0;bottom=0;right=0;spacingLeft=6;" vertex="1" parent="pyn8TXAOzBxaNTXYstjd-125">
          <mxGeometry x="30" width="290" height="30" as="geometry">
            <mxRectangle width="290" height="30" as="alternateBounds" />
          </mxGeometry>
        </mxCell>
        <mxCell id="pyn8TXAOzBxaNTXYstjd-128" value="" style="shape=tableRow;horizontal=0;startSize=0;swimlaneHead=0;swimlaneBody=0;fillColor=none;collapsible=0;dropTarget=0;points=[[0,0.5],[1,0.5]];portConstraint=eastwest;strokeColor=inherit;top=0;left=0;right=0;bottom=0;" vertex="1" parent="pyn8TXAOzBxaNTXYstjd-115">
          <mxGeometry y="150" width="320" height="30" as="geometry" />
        </mxCell>
        <mxCell id="pyn8TXAOzBxaNTXYstjd-129" value="" style="shape=partialRectangle;overflow=hidden;connectable=0;fillColor=none;strokeColor=inherit;top=0;left=0;bottom=0;right=0;" vertex="1" parent="pyn8TXAOzBxaNTXYstjd-128">
          <mxGeometry width="30" height="30" as="geometry">
            <mxRectangle width="30" height="30" as="alternateBounds" />
          </mxGeometry>
        </mxCell>
        <mxCell id="pyn8TXAOzBxaNTXYstjd-130" value="`description` varchar(191) COLLATE utf8mb4_unicode_ci NOT NULL" style="shape=partialRectangle;overflow=hidden;connectable=0;fillColor=none;align=left;strokeColor=inherit;top=0;left=0;bottom=0;right=0;spacingLeft=6;" vertex="1" parent="pyn8TXAOzBxaNTXYstjd-128">
          <mxGeometry x="30" width="290" height="30" as="geometry">
            <mxRectangle width="290" height="30" as="alternateBounds" />
          </mxGeometry>
        </mxCell>
        <mxCell id="pyn8TXAOzBxaNTXYstjd-131" value="" style="shape=tableRow;horizontal=0;startSize=0;swimlaneHead=0;swimlaneBody=0;fillColor=none;collapsible=0;dropTarget=0;points=[[0,0.5],[1,0.5]];portConstraint=eastwest;strokeColor=inherit;top=0;left=0;right=0;bottom=0;" vertex="1" parent="pyn8TXAOzBxaNTXYstjd-115">
          <mxGeometry y="180" width="320" height="30" as="geometry" />
        </mxCell>
        <mxCell id="pyn8TXAOzBxaNTXYstjd-132" value="" style="shape=partialRectangle;overflow=hidden;connectable=0;fillColor=none;strokeColor=inherit;top=0;left=0;bottom=0;right=0;" vertex="1" parent="pyn8TXAOzBxaNTXYstjd-131">
          <mxGeometry width="30" height="30" as="geometry">
            <mxRectangle width="30" height="30" as="alternateBounds" />
          </mxGeometry>
        </mxCell>
        <mxCell id="pyn8TXAOzBxaNTXYstjd-133" value="`stock` int NOT NULL" style="shape=partialRectangle;overflow=hidden;connectable=0;fillColor=none;align=left;strokeColor=inherit;top=0;left=0;bottom=0;right=0;spacingLeft=6;" vertex="1" parent="pyn8TXAOzBxaNTXYstjd-131">
          <mxGeometry x="30" width="290" height="30" as="geometry">
            <mxRectangle width="290" height="30" as="alternateBounds" />
          </mxGeometry>
        </mxCell>
        <mxCell id="pyn8TXAOzBxaNTXYstjd-134" value="" style="shape=tableRow;horizontal=0;startSize=0;swimlaneHead=0;swimlaneBody=0;fillColor=none;collapsible=0;dropTarget=0;points=[[0,0.5],[1,0.5]];portConstraint=eastwest;strokeColor=inherit;top=0;left=0;right=0;bottom=0;" vertex="1" parent="pyn8TXAOzBxaNTXYstjd-115">
          <mxGeometry y="210" width="320" height="30" as="geometry" />
        </mxCell>
        <mxCell id="pyn8TXAOzBxaNTXYstjd-135" value="" style="shape=partialRectangle;overflow=hidden;connectable=0;fillColor=none;strokeColor=inherit;top=0;left=0;bottom=0;right=0;" vertex="1" parent="pyn8TXAOzBxaNTXYstjd-134">
          <mxGeometry width="30" height="30" as="geometry">
            <mxRectangle width="30" height="30" as="alternateBounds" />
          </mxGeometry>
        </mxCell>
        <mxCell id="pyn8TXAOzBxaNTXYstjd-136" value="`id_user` int NOT NULL" style="shape=partialRectangle;overflow=hidden;connectable=0;fillColor=none;align=left;strokeColor=inherit;top=0;left=0;bottom=0;right=0;spacingLeft=6;" vertex="1" parent="pyn8TXAOzBxaNTXYstjd-134">
          <mxGeometry x="30" width="290" height="30" as="geometry">
            <mxRectangle width="290" height="30" as="alternateBounds" />
          </mxGeometry>
        </mxCell>
        <mxCell id="pyn8TXAOzBxaNTXYstjd-137" value="" style="shape=tableRow;horizontal=0;startSize=0;swimlaneHead=0;swimlaneBody=0;fillColor=none;collapsible=0;dropTarget=0;points=[[0,0.5],[1,0.5]];portConstraint=eastwest;strokeColor=inherit;top=0;left=0;right=0;bottom=0;" vertex="1" parent="pyn8TXAOzBxaNTXYstjd-115">
          <mxGeometry y="240" width="320" height="30" as="geometry" />
        </mxCell>
        <mxCell id="pyn8TXAOzBxaNTXYstjd-138" value="" style="shape=partialRectangle;overflow=hidden;connectable=0;fillColor=none;strokeColor=inherit;top=0;left=0;bottom=0;right=0;" vertex="1" parent="pyn8TXAOzBxaNTXYstjd-137">
          <mxGeometry width="30" height="30" as="geometry">
            <mxRectangle width="30" height="30" as="alternateBounds" />
          </mxGeometry>
        </mxCell>
        <mxCell id="pyn8TXAOzBxaNTXYstjd-139" value="`id_category` int NOT NULL" style="shape=partialRectangle;overflow=hidden;connectable=0;fillColor=none;align=left;strokeColor=inherit;top=0;left=0;bottom=0;right=0;spacingLeft=6;" vertex="1" parent="pyn8TXAOzBxaNTXYstjd-137">
          <mxGeometry x="30" width="290" height="30" as="geometry">
            <mxRectangle width="290" height="30" as="alternateBounds" />
          </mxGeometry>
        </mxCell>
        <mxCell id="pyn8TXAOzBxaNTXYstjd-140" value="" style="shape=tableRow;horizontal=0;startSize=0;swimlaneHead=0;swimlaneBody=0;fillColor=none;collapsible=0;dropTarget=0;points=[[0,0.5],[1,0.5]];portConstraint=eastwest;strokeColor=inherit;top=0;left=0;right=0;bottom=0;" vertex="1" parent="pyn8TXAOzBxaNTXYstjd-115">
          <mxGeometry y="270" width="320" height="30" as="geometry" />
        </mxCell>
        <mxCell id="pyn8TXAOzBxaNTXYstjd-141" value="" style="shape=partialRectangle;overflow=hidden;connectable=0;fillColor=none;strokeColor=inherit;top=0;left=0;bottom=0;right=0;" vertex="1" parent="pyn8TXAOzBxaNTXYstjd-140">
          <mxGeometry width="30" height="30" as="geometry">
            <mxRectangle width="30" height="30" as="alternateBounds" />
          </mxGeometry>
        </mxCell>
        <mxCell id="pyn8TXAOzBxaNTXYstjd-142" value="`shoppingCartsIdCart` int DEFAULT NULL" style="shape=partialRectangle;overflow=hidden;connectable=0;fillColor=none;align=left;strokeColor=inherit;top=0;left=0;bottom=0;right=0;spacingLeft=6;" vertex="1" parent="pyn8TXAOzBxaNTXYstjd-140">
          <mxGeometry x="30" width="290" height="30" as="geometry">
            <mxRectangle width="290" height="30" as="alternateBounds" />
          </mxGeometry>
        </mxCell>
        <mxCell id="pyn8TXAOzBxaNTXYstjd-214" value="`reviews`" style="shape=table;startSize=30;container=1;collapsible=1;childLayout=tableLayout;fixedRows=1;rowLines=0;fontStyle=1;align=center;resizeLast=1;" vertex="1" parent="1">
          <mxGeometry x="-760" y="150" width="320" height="240" as="geometry" />
        </mxCell>
        <mxCell id="pyn8TXAOzBxaNTXYstjd-215" value="" style="shape=tableRow;horizontal=0;startSize=0;swimlaneHead=0;swimlaneBody=0;fillColor=none;collapsible=0;dropTarget=0;points=[[0,0.5],[1,0.5]];portConstraint=eastwest;strokeColor=inherit;top=0;left=0;right=0;bottom=0;" vertex="1" parent="pyn8TXAOzBxaNTXYstjd-214">
          <mxGeometry y="30" width="320" height="30" as="geometry" />
        </mxCell>
        <mxCell id="pyn8TXAOzBxaNTXYstjd-216" value="" style="shape=partialRectangle;overflow=hidden;connectable=0;fillColor=none;strokeColor=inherit;top=0;left=0;bottom=0;right=0;" vertex="1" parent="pyn8TXAOzBxaNTXYstjd-215">
          <mxGeometry width="30" height="30" as="geometry">
            <mxRectangle width="30" height="30" as="alternateBounds" />
          </mxGeometry>
        </mxCell>
        <mxCell id="pyn8TXAOzBxaNTXYstjd-217" value="`id_review` int NOT NULL" style="shape=partialRectangle;overflow=hidden;connectable=0;fillColor=none;align=left;strokeColor=inherit;top=0;left=0;bottom=0;right=0;spacingLeft=6;" vertex="1" parent="pyn8TXAOzBxaNTXYstjd-215">
          <mxGeometry x="30" width="290" height="30" as="geometry">
            <mxRectangle width="290" height="30" as="alternateBounds" />
          </mxGeometry>
        </mxCell>
        <mxCell id="pyn8TXAOzBxaNTXYstjd-218" value="" style="shape=tableRow;horizontal=0;startSize=0;swimlaneHead=0;swimlaneBody=0;fillColor=none;collapsible=0;dropTarget=0;points=[[0,0.5],[1,0.5]];portConstraint=eastwest;strokeColor=inherit;top=0;left=0;right=0;bottom=0;" vertex="1" parent="pyn8TXAOzBxaNTXYstjd-214">
          <mxGeometry y="60" width="320" height="30" as="geometry" />
        </mxCell>
        <mxCell id="pyn8TXAOzBxaNTXYstjd-219" value="" style="shape=partialRectangle;overflow=hidden;connectable=0;fillColor=none;strokeColor=inherit;top=0;left=0;bottom=0;right=0;" vertex="1" parent="pyn8TXAOzBxaNTXYstjd-218">
          <mxGeometry width="30" height="30" as="geometry">
            <mxRectangle width="30" height="30" as="alternateBounds" />
          </mxGeometry>
        </mxCell>
        <mxCell id="pyn8TXAOzBxaNTXYstjd-220" value="`id_user` int NOT NULL" style="shape=partialRectangle;overflow=hidden;connectable=0;fillColor=none;align=left;strokeColor=inherit;top=0;left=0;bottom=0;right=0;spacingLeft=6;" vertex="1" parent="pyn8TXAOzBxaNTXYstjd-218">
          <mxGeometry x="30" width="290" height="30" as="geometry">
            <mxRectangle width="290" height="30" as="alternateBounds" />
          </mxGeometry>
        </mxCell>
        <mxCell id="pyn8TXAOzBxaNTXYstjd-221" value="" style="shape=tableRow;horizontal=0;startSize=0;swimlaneHead=0;swimlaneBody=0;fillColor=none;collapsible=0;dropTarget=0;points=[[0,0.5],[1,0.5]];portConstraint=eastwest;strokeColor=inherit;top=0;left=0;right=0;bottom=0;" vertex="1" parent="pyn8TXAOzBxaNTXYstjd-214">
          <mxGeometry y="90" width="320" height="30" as="geometry" />
        </mxCell>
        <mxCell id="pyn8TXAOzBxaNTXYstjd-222" value="" style="shape=partialRectangle;overflow=hidden;connectable=0;fillColor=none;strokeColor=inherit;top=0;left=0;bottom=0;right=0;" vertex="1" parent="pyn8TXAOzBxaNTXYstjd-221">
          <mxGeometry width="30" height="30" as="geometry">
            <mxRectangle width="30" height="30" as="alternateBounds" />
          </mxGeometry>
        </mxCell>
        <mxCell id="pyn8TXAOzBxaNTXYstjd-223" value="`id_product` int NOT NULL" style="shape=partialRectangle;overflow=hidden;connectable=0;fillColor=none;align=left;strokeColor=inherit;top=0;left=0;bottom=0;right=0;spacingLeft=6;" vertex="1" parent="pyn8TXAOzBxaNTXYstjd-221">
          <mxGeometry x="30" width="290" height="30" as="geometry">
            <mxRectangle width="290" height="30" as="alternateBounds" />
          </mxGeometry>
        </mxCell>
        <mxCell id="pyn8TXAOzBxaNTXYstjd-224" value="" style="shape=tableRow;horizontal=0;startSize=0;swimlaneHead=0;swimlaneBody=0;fillColor=none;collapsible=0;dropTarget=0;points=[[0,0.5],[1,0.5]];portConstraint=eastwest;strokeColor=inherit;top=0;left=0;right=0;bottom=0;" vertex="1" parent="pyn8TXAOzBxaNTXYstjd-214">
          <mxGeometry y="120" width="320" height="30" as="geometry" />
        </mxCell>
        <mxCell id="pyn8TXAOzBxaNTXYstjd-225" value="" style="shape=partialRectangle;overflow=hidden;connectable=0;fillColor=none;strokeColor=inherit;top=0;left=0;bottom=0;right=0;" vertex="1" parent="pyn8TXAOzBxaNTXYstjd-224">
          <mxGeometry width="30" height="30" as="geometry">
            <mxRectangle width="30" height="30" as="alternateBounds" />
          </mxGeometry>
        </mxCell>
        <mxCell id="pyn8TXAOzBxaNTXYstjd-226" value="`comment` varchar(191) COLLATE utf8mb4_unicode_ci NOT NULL" style="shape=partialRectangle;overflow=hidden;connectable=0;fillColor=none;align=left;strokeColor=inherit;top=0;left=0;bottom=0;right=0;spacingLeft=6;" vertex="1" parent="pyn8TXAOzBxaNTXYstjd-224">
          <mxGeometry x="30" width="290" height="30" as="geometry">
            <mxRectangle width="290" height="30" as="alternateBounds" />
          </mxGeometry>
        </mxCell>
        <mxCell id="pyn8TXAOzBxaNTXYstjd-227" value="" style="shape=tableRow;horizontal=0;startSize=0;swimlaneHead=0;swimlaneBody=0;fillColor=none;collapsible=0;dropTarget=0;points=[[0,0.5],[1,0.5]];portConstraint=eastwest;strokeColor=inherit;top=0;left=0;right=0;bottom=0;" vertex="1" parent="pyn8TXAOzBxaNTXYstjd-214">
          <mxGeometry y="150" width="320" height="30" as="geometry" />
        </mxCell>
        <mxCell id="pyn8TXAOzBxaNTXYstjd-228" value="" style="shape=partialRectangle;overflow=hidden;connectable=0;fillColor=none;strokeColor=inherit;top=0;left=0;bottom=0;right=0;" vertex="1" parent="pyn8TXAOzBxaNTXYstjd-227">
          <mxGeometry width="30" height="30" as="geometry">
            <mxRectangle width="30" height="30" as="alternateBounds" />
          </mxGeometry>
        </mxCell>
        <mxCell id="pyn8TXAOzBxaNTXYstjd-229" value="`rating` int NOT NULL" style="shape=partialRectangle;overflow=hidden;connectable=0;fillColor=none;align=left;strokeColor=inherit;top=0;left=0;bottom=0;right=0;spacingLeft=6;" vertex="1" parent="pyn8TXAOzBxaNTXYstjd-227">
          <mxGeometry x="30" width="290" height="30" as="geometry">
            <mxRectangle width="290" height="30" as="alternateBounds" />
          </mxGeometry>
        </mxCell>
        <mxCell id="pyn8TXAOzBxaNTXYstjd-230" value="" style="shape=tableRow;horizontal=0;startSize=0;swimlaneHead=0;swimlaneBody=0;fillColor=none;collapsible=0;dropTarget=0;points=[[0,0.5],[1,0.5]];portConstraint=eastwest;strokeColor=inherit;top=0;left=0;right=0;bottom=0;" vertex="1" parent="pyn8TXAOzBxaNTXYstjd-214">
          <mxGeometry y="180" width="320" height="30" as="geometry" />
        </mxCell>
        <mxCell id="pyn8TXAOzBxaNTXYstjd-231" value="" style="shape=partialRectangle;overflow=hidden;connectable=0;fillColor=none;strokeColor=inherit;top=0;left=0;bottom=0;right=0;" vertex="1" parent="pyn8TXAOzBxaNTXYstjd-230">
          <mxGeometry width="30" height="30" as="geometry">
            <mxRectangle width="30" height="30" as="alternateBounds" />
          </mxGeometry>
        </mxCell>
        <mxCell id="pyn8TXAOzBxaNTXYstjd-232" value="`image` varchar(191) COLLATE utf8mb4_unicode_ci NOT NULL" style="shape=partialRectangle;overflow=hidden;connectable=0;fillColor=none;align=left;strokeColor=inherit;top=0;left=0;bottom=0;right=0;spacingLeft=6;" vertex="1" parent="pyn8TXAOzBxaNTXYstjd-230">
          <mxGeometry x="30" width="290" height="30" as="geometry">
            <mxRectangle width="290" height="30" as="alternateBounds" />
          </mxGeometry>
        </mxCell>
        <mxCell id="pyn8TXAOzBxaNTXYstjd-233" value="" style="shape=tableRow;horizontal=0;startSize=0;swimlaneHead=0;swimlaneBody=0;fillColor=none;collapsible=0;dropTarget=0;points=[[0,0.5],[1,0.5]];portConstraint=eastwest;strokeColor=inherit;top=0;left=0;right=0;bottom=0;" vertex="1" parent="pyn8TXAOzBxaNTXYstjd-214">
          <mxGeometry y="210" width="320" height="30" as="geometry" />
        </mxCell>
        <mxCell id="pyn8TXAOzBxaNTXYstjd-234" value="" style="shape=partialRectangle;overflow=hidden;connectable=0;fillColor=none;strokeColor=inherit;top=0;left=0;bottom=0;right=0;" vertex="1" parent="pyn8TXAOzBxaNTXYstjd-233">
          <mxGeometry width="30" height="30" as="geometry">
            <mxRectangle width="30" height="30" as="alternateBounds" />
          </mxGeometry>
        </mxCell>
        <mxCell id="pyn8TXAOzBxaNTXYstjd-235" value="`created_at` datetime(3) NOT NULL DEFAULT CURRENT_TIMESTAMP(3)" style="shape=partialRectangle;overflow=hidden;connectable=0;fillColor=none;align=left;strokeColor=inherit;top=0;left=0;bottom=0;right=0;spacingLeft=6;" vertex="1" parent="pyn8TXAOzBxaNTXYstjd-233">
          <mxGeometry x="30" width="290" height="30" as="geometry">
            <mxRectangle width="290" height="30" as="alternateBounds" />
          </mxGeometry>
        </mxCell>
        <mxCell id="pyn8TXAOzBxaNTXYstjd-236" value="`shopping_carts`" style="shape=table;startSize=30;container=1;collapsible=1;childLayout=tableLayout;fixedRows=1;rowLines=0;fontStyle=1;align=center;resizeLast=1;" vertex="1" parent="1">
          <mxGeometry x="-760" y="440" width="180" height="150" as="geometry" />
        </mxCell>
        <mxCell id="pyn8TXAOzBxaNTXYstjd-237" value="" style="shape=tableRow;horizontal=0;startSize=0;swimlaneHead=0;swimlaneBody=0;fillColor=none;collapsible=0;dropTarget=0;points=[[0,0.5],[1,0.5]];portConstraint=eastwest;strokeColor=inherit;top=0;left=0;right=0;bottom=0;" vertex="1" parent="pyn8TXAOzBxaNTXYstjd-236">
          <mxGeometry y="30" width="180" height="30" as="geometry" />
        </mxCell>
        <mxCell id="pyn8TXAOzBxaNTXYstjd-238" value="" style="shape=partialRectangle;overflow=hidden;connectable=0;fillColor=none;strokeColor=inherit;top=0;left=0;bottom=0;right=0;" vertex="1" parent="pyn8TXAOzBxaNTXYstjd-237">
          <mxGeometry width="30" height="30" as="geometry">
            <mxRectangle width="30" height="30" as="alternateBounds" />
          </mxGeometry>
        </mxCell>
        <mxCell id="pyn8TXAOzBxaNTXYstjd-239" value="`id_cart` int NOT NULL" style="shape=partialRectangle;overflow=hidden;connectable=0;fillColor=none;align=left;strokeColor=inherit;top=0;left=0;bottom=0;right=0;spacingLeft=6;" vertex="1" parent="pyn8TXAOzBxaNTXYstjd-237">
          <mxGeometry x="30" width="150" height="30" as="geometry">
            <mxRectangle width="150" height="30" as="alternateBounds" />
          </mxGeometry>
        </mxCell>
        <mxCell id="pyn8TXAOzBxaNTXYstjd-240" value="" style="shape=tableRow;horizontal=0;startSize=0;swimlaneHead=0;swimlaneBody=0;fillColor=none;collapsible=0;dropTarget=0;points=[[0,0.5],[1,0.5]];portConstraint=eastwest;strokeColor=inherit;top=0;left=0;right=0;bottom=0;" vertex="1" parent="pyn8TXAOzBxaNTXYstjd-236">
          <mxGeometry y="60" width="180" height="30" as="geometry" />
        </mxCell>
        <mxCell id="pyn8TXAOzBxaNTXYstjd-241" value="" style="shape=partialRectangle;overflow=hidden;connectable=0;fillColor=none;strokeColor=inherit;top=0;left=0;bottom=0;right=0;" vertex="1" parent="pyn8TXAOzBxaNTXYstjd-240">
          <mxGeometry width="30" height="30" as="geometry">
            <mxRectangle width="30" height="30" as="alternateBounds" />
          </mxGeometry>
        </mxCell>
        <mxCell id="pyn8TXAOzBxaNTXYstjd-242" value="`id_user` int NOT NULL" style="shape=partialRectangle;overflow=hidden;connectable=0;fillColor=none;align=left;strokeColor=inherit;top=0;left=0;bottom=0;right=0;spacingLeft=6;" vertex="1" parent="pyn8TXAOzBxaNTXYstjd-240">
          <mxGeometry x="30" width="150" height="30" as="geometry">
            <mxRectangle width="150" height="30" as="alternateBounds" />
          </mxGeometry>
        </mxCell>
        <mxCell id="pyn8TXAOzBxaNTXYstjd-243" value="" style="shape=tableRow;horizontal=0;startSize=0;swimlaneHead=0;swimlaneBody=0;fillColor=none;collapsible=0;dropTarget=0;points=[[0,0.5],[1,0.5]];portConstraint=eastwest;strokeColor=inherit;top=0;left=0;right=0;bottom=0;" vertex="1" parent="pyn8TXAOzBxaNTXYstjd-236">
          <mxGeometry y="90" width="180" height="30" as="geometry" />
        </mxCell>
        <mxCell id="pyn8TXAOzBxaNTXYstjd-244" value="" style="shape=partialRectangle;overflow=hidden;connectable=0;fillColor=none;strokeColor=inherit;top=0;left=0;bottom=0;right=0;" vertex="1" parent="pyn8TXAOzBxaNTXYstjd-243">
          <mxGeometry width="30" height="30" as="geometry">
            <mxRectangle width="30" height="30" as="alternateBounds" />
          </mxGeometry>
        </mxCell>
        <mxCell id="pyn8TXAOzBxaNTXYstjd-245" value="`qty` int NOT NULL" style="shape=partialRectangle;overflow=hidden;connectable=0;fillColor=none;align=left;strokeColor=inherit;top=0;left=0;bottom=0;right=0;spacingLeft=6;" vertex="1" parent="pyn8TXAOzBxaNTXYstjd-243">
          <mxGeometry x="30" width="150" height="30" as="geometry">
            <mxRectangle width="150" height="30" as="alternateBounds" />
          </mxGeometry>
        </mxCell>
        <mxCell id="pyn8TXAOzBxaNTXYstjd-246" value="" style="shape=tableRow;horizontal=0;startSize=0;swimlaneHead=0;swimlaneBody=0;fillColor=none;collapsible=0;dropTarget=0;points=[[0,0.5],[1,0.5]];portConstraint=eastwest;strokeColor=inherit;top=0;left=0;right=0;bottom=0;" vertex="1" parent="pyn8TXAOzBxaNTXYstjd-236">
          <mxGeometry y="120" width="180" height="30" as="geometry" />
        </mxCell>
        <mxCell id="pyn8TXAOzBxaNTXYstjd-247" value="" style="shape=partialRectangle;overflow=hidden;connectable=0;fillColor=none;strokeColor=inherit;top=0;left=0;bottom=0;right=0;" vertex="1" parent="pyn8TXAOzBxaNTXYstjd-246">
          <mxGeometry width="30" height="30" as="geometry">
            <mxRectangle width="30" height="30" as="alternateBounds" />
          </mxGeometry>
        </mxCell>
        <mxCell id="pyn8TXAOzBxaNTXYstjd-248" value="`total` int NOT NULL" style="shape=partialRectangle;overflow=hidden;connectable=0;fillColor=none;align=left;strokeColor=inherit;top=0;left=0;bottom=0;right=0;spacingLeft=6;" vertex="1" parent="pyn8TXAOzBxaNTXYstjd-246">
          <mxGeometry x="30" width="150" height="30" as="geometry">
            <mxRectangle width="150" height="30" as="alternateBounds" />
          </mxGeometry>
        </mxCell>
        <mxCell id="pyn8TXAOzBxaNTXYstjd-249" value="`users`" style="shape=table;startSize=20;container=1;collapsible=1;childLayout=tableLayout;fixedRows=1;rowLines=0;fontStyle=1;align=center;resizeLast=1;" vertex="1" parent="1">
          <mxGeometry x="-760" y="630" width="320" height="240" as="geometry" />
        </mxCell>
        <mxCell id="pyn8TXAOzBxaNTXYstjd-250" value="" style="shape=tableRow;horizontal=0;startSize=0;swimlaneHead=0;swimlaneBody=0;fillColor=none;collapsible=0;dropTarget=0;points=[[0,0.5],[1,0.5]];portConstraint=eastwest;strokeColor=inherit;top=0;left=0;right=0;bottom=0;" vertex="1" parent="pyn8TXAOzBxaNTXYstjd-249">
          <mxGeometry y="20" width="320" height="30" as="geometry" />
        </mxCell>
        <mxCell id="pyn8TXAOzBxaNTXYstjd-251" value="" style="shape=partialRectangle;overflow=hidden;connectable=0;fillColor=none;strokeColor=inherit;top=0;left=0;bottom=0;right=0;" vertex="1" parent="pyn8TXAOzBxaNTXYstjd-250">
          <mxGeometry width="30" height="30" as="geometry">
            <mxRectangle width="30" height="30" as="alternateBounds" />
          </mxGeometry>
        </mxCell>
        <mxCell id="pyn8TXAOzBxaNTXYstjd-252" value="`id_user` int NOT NULL" style="shape=partialRectangle;overflow=hidden;connectable=0;fillColor=none;align=left;strokeColor=inherit;top=0;left=0;bottom=0;right=0;spacingLeft=6;" vertex="1" parent="pyn8TXAOzBxaNTXYstjd-250">
          <mxGeometry x="30" width="290" height="30" as="geometry">
            <mxRectangle width="290" height="30" as="alternateBounds" />
          </mxGeometry>
        </mxCell>
        <mxCell id="pyn8TXAOzBxaNTXYstjd-253" value="" style="shape=tableRow;horizontal=0;startSize=0;swimlaneHead=0;swimlaneBody=0;fillColor=none;collapsible=0;dropTarget=0;points=[[0,0.5],[1,0.5]];portConstraint=eastwest;strokeColor=inherit;top=0;left=0;right=0;bottom=0;" vertex="1" parent="pyn8TXAOzBxaNTXYstjd-249">
          <mxGeometry y="50" width="320" height="30" as="geometry" />
        </mxCell>
        <mxCell id="pyn8TXAOzBxaNTXYstjd-254" value="" style="shape=partialRectangle;overflow=hidden;connectable=0;fillColor=none;strokeColor=inherit;top=0;left=0;bottom=0;right=0;" vertex="1" parent="pyn8TXAOzBxaNTXYstjd-253">
          <mxGeometry width="30" height="30" as="geometry">
            <mxRectangle width="30" height="30" as="alternateBounds" />
          </mxGeometry>
        </mxCell>
        <mxCell id="pyn8TXAOzBxaNTXYstjd-255" value="`name` varchar(191) COLLATE utf8mb4_unicode_ci NOT NULL" style="shape=partialRectangle;overflow=hidden;connectable=0;fillColor=none;align=left;strokeColor=inherit;top=0;left=0;bottom=0;right=0;spacingLeft=6;" vertex="1" parent="pyn8TXAOzBxaNTXYstjd-253">
          <mxGeometry x="30" width="290" height="30" as="geometry">
            <mxRectangle width="290" height="30" as="alternateBounds" />
          </mxGeometry>
        </mxCell>
        <mxCell id="pyn8TXAOzBxaNTXYstjd-256" value="" style="shape=tableRow;horizontal=0;startSize=0;swimlaneHead=0;swimlaneBody=0;fillColor=none;collapsible=0;dropTarget=0;points=[[0,0.5],[1,0.5]];portConstraint=eastwest;strokeColor=inherit;top=0;left=0;right=0;bottom=0;" vertex="1" parent="pyn8TXAOzBxaNTXYstjd-249">
          <mxGeometry y="80" width="320" height="30" as="geometry" />
        </mxCell>
        <mxCell id="pyn8TXAOzBxaNTXYstjd-257" value="" style="shape=partialRectangle;overflow=hidden;connectable=0;fillColor=none;strokeColor=inherit;top=0;left=0;bottom=0;right=0;" vertex="1" parent="pyn8TXAOzBxaNTXYstjd-256">
          <mxGeometry width="30" height="30" as="geometry">
            <mxRectangle width="30" height="30" as="alternateBounds" />
          </mxGeometry>
        </mxCell>
        <mxCell id="pyn8TXAOzBxaNTXYstjd-258" value="`username` varchar(191) COLLATE utf8mb4_unicode_ci NOT NULL" style="shape=partialRectangle;overflow=hidden;connectable=0;fillColor=none;align=left;strokeColor=inherit;top=0;left=0;bottom=0;right=0;spacingLeft=6;" vertex="1" parent="pyn8TXAOzBxaNTXYstjd-256">
          <mxGeometry x="30" width="290" height="30" as="geometry">
            <mxRectangle width="290" height="30" as="alternateBounds" />
          </mxGeometry>
        </mxCell>
        <mxCell id="pyn8TXAOzBxaNTXYstjd-259" value="" style="shape=tableRow;horizontal=0;startSize=0;swimlaneHead=0;swimlaneBody=0;fillColor=none;collapsible=0;dropTarget=0;points=[[0,0.5],[1,0.5]];portConstraint=eastwest;strokeColor=inherit;top=0;left=0;right=0;bottom=0;" vertex="1" parent="pyn8TXAOzBxaNTXYstjd-249">
          <mxGeometry y="110" width="320" height="30" as="geometry" />
        </mxCell>
        <mxCell id="pyn8TXAOzBxaNTXYstjd-260" value="" style="shape=partialRectangle;overflow=hidden;connectable=0;fillColor=none;strokeColor=inherit;top=0;left=0;bottom=0;right=0;" vertex="1" parent="pyn8TXAOzBxaNTXYstjd-259">
          <mxGeometry width="30" height="30" as="geometry">
            <mxRectangle width="30" height="30" as="alternateBounds" />
          </mxGeometry>
        </mxCell>
        <mxCell id="pyn8TXAOzBxaNTXYstjd-261" value="`phone` varchar(191) COLLATE utf8mb4_unicode_ci NOT NULL" style="shape=partialRectangle;overflow=hidden;connectable=0;fillColor=none;align=left;strokeColor=inherit;top=0;left=0;bottom=0;right=0;spacingLeft=6;" vertex="1" parent="pyn8TXAOzBxaNTXYstjd-259">
          <mxGeometry x="30" width="290" height="30" as="geometry">
            <mxRectangle width="290" height="30" as="alternateBounds" />
          </mxGeometry>
        </mxCell>
        <mxCell id="pyn8TXAOzBxaNTXYstjd-262" value="" style="shape=tableRow;horizontal=0;startSize=0;swimlaneHead=0;swimlaneBody=0;fillColor=none;collapsible=0;dropTarget=0;points=[[0,0.5],[1,0.5]];portConstraint=eastwest;strokeColor=inherit;top=0;left=0;right=0;bottom=0;" vertex="1" parent="pyn8TXAOzBxaNTXYstjd-249">
          <mxGeometry y="140" width="320" height="30" as="geometry" />
        </mxCell>
        <mxCell id="pyn8TXAOzBxaNTXYstjd-263" value="" style="shape=partialRectangle;overflow=hidden;connectable=0;fillColor=none;strokeColor=inherit;top=0;left=0;bottom=0;right=0;" vertex="1" parent="pyn8TXAOzBxaNTXYstjd-262">
          <mxGeometry width="30" height="30" as="geometry">
            <mxRectangle width="30" height="30" as="alternateBounds" />
          </mxGeometry>
        </mxCell>
        <mxCell id="pyn8TXAOzBxaNTXYstjd-264" value="`email` varchar(191) COLLATE utf8mb4_unicode_ci NOT NULL" style="shape=partialRectangle;overflow=hidden;connectable=0;fillColor=none;align=left;strokeColor=inherit;top=0;left=0;bottom=0;right=0;spacingLeft=6;" vertex="1" parent="pyn8TXAOzBxaNTXYstjd-262">
          <mxGeometry x="30" width="290" height="30" as="geometry">
            <mxRectangle width="290" height="30" as="alternateBounds" />
          </mxGeometry>
        </mxCell>
        <mxCell id="pyn8TXAOzBxaNTXYstjd-265" value="" style="shape=tableRow;horizontal=0;startSize=0;swimlaneHead=0;swimlaneBody=0;fillColor=none;collapsible=0;dropTarget=0;points=[[0,0.5],[1,0.5]];portConstraint=eastwest;strokeColor=inherit;top=0;left=0;right=0;bottom=0;" vertex="1" parent="pyn8TXAOzBxaNTXYstjd-249">
          <mxGeometry y="170" width="320" height="30" as="geometry" />
        </mxCell>
        <mxCell id="pyn8TXAOzBxaNTXYstjd-266" value="" style="shape=partialRectangle;overflow=hidden;connectable=0;fillColor=none;strokeColor=inherit;top=0;left=0;bottom=0;right=0;" vertex="1" parent="pyn8TXAOzBxaNTXYstjd-265">
          <mxGeometry width="30" height="30" as="geometry">
            <mxRectangle width="30" height="30" as="alternateBounds" />
          </mxGeometry>
        </mxCell>
        <mxCell id="pyn8TXAOzBxaNTXYstjd-267" value="`password` varchar(191) COLLATE utf8mb4_unicode_ci NOT NULL" style="shape=partialRectangle;overflow=hidden;connectable=0;fillColor=none;align=left;strokeColor=inherit;top=0;left=0;bottom=0;right=0;spacingLeft=6;" vertex="1" parent="pyn8TXAOzBxaNTXYstjd-265">
          <mxGeometry x="30" width="290" height="30" as="geometry">
            <mxRectangle width="290" height="30" as="alternateBounds" />
          </mxGeometry>
        </mxCell>
        <mxCell id="pyn8TXAOzBxaNTXYstjd-268" value="" style="shape=tableRow;horizontal=0;startSize=0;swimlaneHead=0;swimlaneBody=0;fillColor=none;collapsible=0;dropTarget=0;points=[[0,0.5],[1,0.5]];portConstraint=eastwest;strokeColor=inherit;top=0;left=0;right=0;bottom=0;" vertex="1" parent="pyn8TXAOzBxaNTXYstjd-249">
          <mxGeometry y="200" width="320" height="30" as="geometry" />
        </mxCell>
        <mxCell id="pyn8TXAOzBxaNTXYstjd-269" value="" style="shape=partialRectangle;overflow=hidden;connectable=0;fillColor=none;strokeColor=inherit;top=0;left=0;bottom=0;right=0;" vertex="1" parent="pyn8TXAOzBxaNTXYstjd-268">
          <mxGeometry width="30" height="30" as="geometry">
            <mxRectangle width="30" height="30" as="alternateBounds" />
          </mxGeometry>
        </mxCell>
        <mxCell id="pyn8TXAOzBxaNTXYstjd-270" value="`role` enum(&#39;USER&#39;,&#39;SELLER&#39;) COLLATE utf8mb4_unicode_ci NOT NULL DEFAULT &#39;USER&#39;" style="shape=partialRectangle;overflow=hidden;connectable=0;fillColor=none;align=left;strokeColor=inherit;top=0;left=0;bottom=0;right=0;spacingLeft=6;" vertex="1" parent="pyn8TXAOzBxaNTXYstjd-268">
          <mxGeometry x="30" width="290" height="30" as="geometry">
            <mxRectangle width="290" height="30" as="alternateBounds" />
          </mxGeometry>
        </mxCell>
        <mxCell id="pyn8TXAOzBxaNTXYstjd-271" value="`whishlist`" style="shape=table;startSize=30;container=1;collapsible=1;childLayout=tableLayout;fixedRows=1;rowLines=0;fontStyle=1;align=center;resizeLast=1;" vertex="1" parent="1">
          <mxGeometry x="-1120" y="990" width="210" height="90" as="geometry" />
        </mxCell>
        <mxCell id="pyn8TXAOzBxaNTXYstjd-272" value="" style="shape=tableRow;horizontal=0;startSize=0;swimlaneHead=0;swimlaneBody=0;fillColor=none;collapsible=0;dropTarget=0;points=[[0,0.5],[1,0.5]];portConstraint=eastwest;strokeColor=inherit;top=0;left=0;right=0;bottom=0;" vertex="1" parent="pyn8TXAOzBxaNTXYstjd-271">
          <mxGeometry y="30" width="210" height="30" as="geometry" />
        </mxCell>
        <mxCell id="pyn8TXAOzBxaNTXYstjd-273" value="" style="shape=partialRectangle;overflow=hidden;connectable=0;fillColor=none;strokeColor=inherit;top=0;left=0;bottom=0;right=0;" vertex="1" parent="pyn8TXAOzBxaNTXYstjd-272">
          <mxGeometry width="30" height="30" as="geometry">
            <mxRectangle width="30" height="30" as="alternateBounds" />
          </mxGeometry>
        </mxCell>
        <mxCell id="pyn8TXAOzBxaNTXYstjd-274" value="`id_whishlist` int NOT NULL" style="shape=partialRectangle;overflow=hidden;connectable=0;fillColor=none;align=left;strokeColor=inherit;top=0;left=0;bottom=0;right=0;spacingLeft=6;" vertex="1" parent="pyn8TXAOzBxaNTXYstjd-272">
          <mxGeometry x="30" width="180" height="30" as="geometry">
            <mxRectangle width="180" height="30" as="alternateBounds" />
          </mxGeometry>
        </mxCell>
        <mxCell id="pyn8TXAOzBxaNTXYstjd-275" value="" style="shape=tableRow;horizontal=0;startSize=0;swimlaneHead=0;swimlaneBody=0;fillColor=none;collapsible=0;dropTarget=0;points=[[0,0.5],[1,0.5]];portConstraint=eastwest;strokeColor=inherit;top=0;left=0;right=0;bottom=0;" vertex="1" parent="pyn8TXAOzBxaNTXYstjd-271">
          <mxGeometry y="60" width="210" height="30" as="geometry" />
        </mxCell>
        <mxCell id="pyn8TXAOzBxaNTXYstjd-276" value="" style="shape=partialRectangle;overflow=hidden;connectable=0;fillColor=none;strokeColor=inherit;top=0;left=0;bottom=0;right=0;" vertex="1" parent="pyn8TXAOzBxaNTXYstjd-275">
          <mxGeometry width="30" height="30" as="geometry">
            <mxRectangle width="30" height="30" as="alternateBounds" />
          </mxGeometry>
        </mxCell>
        <mxCell id="pyn8TXAOzBxaNTXYstjd-277" value="`id_user` int NOT NULL" style="shape=partialRectangle;overflow=hidden;connectable=0;fillColor=none;align=left;strokeColor=inherit;top=0;left=0;bottom=0;right=0;spacingLeft=6;" vertex="1" parent="pyn8TXAOzBxaNTXYstjd-275">
          <mxGeometry x="30" width="180" height="30" as="geometry">
            <mxRectangle width="180" height="30" as="alternateBounds" />
          </mxGeometry>
        </mxCell>
        <mxCell id="pyn8TXAOzBxaNTXYstjd-278" value="`_productstowhishlist`" style="shape=table;startSize=30;container=1;collapsible=1;childLayout=tableLayout;fixedRows=1;rowLines=0;fontStyle=1;align=center;resizeLast=1;" vertex="1" parent="1">
          <mxGeometry x="-880" y="990" width="150" height="90" as="geometry" />
        </mxCell>
        <mxCell id="pyn8TXAOzBxaNTXYstjd-279" value="" style="shape=tableRow;horizontal=0;startSize=0;swimlaneHead=0;swimlaneBody=0;fillColor=none;collapsible=0;dropTarget=0;points=[[0,0.5],[1,0.5]];portConstraint=eastwest;strokeColor=inherit;top=0;left=0;right=0;bottom=0;" vertex="1" parent="pyn8TXAOzBxaNTXYstjd-278">
          <mxGeometry y="30" width="150" height="30" as="geometry" />
        </mxCell>
        <mxCell id="pyn8TXAOzBxaNTXYstjd-280" value="" style="shape=partialRectangle;overflow=hidden;connectable=0;fillColor=none;strokeColor=inherit;top=0;left=0;bottom=0;right=0;" vertex="1" parent="pyn8TXAOzBxaNTXYstjd-279">
          <mxGeometry width="30" height="30" as="geometry">
            <mxRectangle width="30" height="30" as="alternateBounds" />
          </mxGeometry>
        </mxCell>
        <mxCell id="pyn8TXAOzBxaNTXYstjd-281" value="`A` int NOT NULL" style="shape=partialRectangle;overflow=hidden;connectable=0;fillColor=none;align=left;strokeColor=inherit;top=0;left=0;bottom=0;right=0;spacingLeft=6;" vertex="1" parent="pyn8TXAOzBxaNTXYstjd-279">
          <mxGeometry x="30" width="120" height="30" as="geometry">
            <mxRectangle width="120" height="30" as="alternateBounds" />
          </mxGeometry>
        </mxCell>
        <mxCell id="pyn8TXAOzBxaNTXYstjd-282" value="" style="shape=tableRow;horizontal=0;startSize=0;swimlaneHead=0;swimlaneBody=0;fillColor=none;collapsible=0;dropTarget=0;points=[[0,0.5],[1,0.5]];portConstraint=eastwest;strokeColor=inherit;top=0;left=0;right=0;bottom=0;" vertex="1" parent="pyn8TXAOzBxaNTXYstjd-278">
          <mxGeometry y="60" width="150" height="30" as="geometry" />
        </mxCell>
        <mxCell id="pyn8TXAOzBxaNTXYstjd-283" value="" style="shape=partialRectangle;overflow=hidden;connectable=0;fillColor=none;strokeColor=inherit;top=0;left=0;bottom=0;right=0;" vertex="1" parent="pyn8TXAOzBxaNTXYstjd-282">
          <mxGeometry width="30" height="30" as="geometry">
            <mxRectangle width="30" height="30" as="alternateBounds" />
          </mxGeometry>
        </mxCell>
        <mxCell id="pyn8TXAOzBxaNTXYstjd-284" value="`B` int NOT NULL" style="shape=partialRectangle;overflow=hidden;connectable=0;fillColor=none;align=left;strokeColor=inherit;top=0;left=0;bottom=0;right=0;spacingLeft=6;" vertex="1" parent="pyn8TXAOzBxaNTXYstjd-282">
          <mxGeometry x="30" width="120" height="30" as="geometry">
            <mxRectangle width="120" height="30" as="alternateBounds" />
          </mxGeometry>
        </mxCell>
        <mxCell id="pyn8TXAOzBxaNTXYstjd-285" value="" style="edgeStyle=entityRelationEdgeStyle;fontSize=12;html=1;endArrow=ERmandOne;startArrow=ERmandOne;rounded=0;exitX=1;exitY=0.5;exitDx=0;exitDy=0;entryX=-0.005;entryY=-0.193;entryDx=0;entryDy=0;entryPerimeter=0;" edge="1" parent="1" source="pyn8TXAOzBxaNTXYstjd-2" target="pyn8TXAOzBxaNTXYstjd-59">
          <mxGeometry width="100" height="100" relative="1" as="geometry">
            <mxPoint x="-1160" y="410" as="sourcePoint" />
            <mxPoint x="-1060" y="310" as="targetPoint" />
          </mxGeometry>
        </mxCell>
      </root>
    </mxGraphModel>
  </diagram>
</mxfile>
